<?xml version="1.0" standalone="yes"?>
<svg xmlns="http://www.w3.org/2000/svg" width="355" height="142">
<path style="fill:#fefefe; stroke:none;" d="M0 0L0 142L355 142L355 0L0 0z"/>
<path style="fill:#9ea8a0; stroke:none;" d="M106 37L103 42L106 42L108 37L106 37M103 38L104 39L103 38z"/>
<path style="fill:#239f78; stroke:none;" d="M94 45L97 39L88 49L87 49L88 44L87 44L82 58L81 58L81 50L80 50L78 66L77 66L76 60L75 60L78 76L77 76L72 70C75.8468 89.8249 87.9632 102.826 109 103C94.1065 80.0987 115.574 61.4144 139 68C136.293 55.0574 128.511 46.2602 116 42L117 38L103 42L106 38L94 45z"/>
<path style="fill:#9ea8a0; stroke:none;" d="M115 38L116 39L115 38M117 38L118 39L117 38M111 39L112 40L111 39M94 40L95 41L94 40M96 40L97 41L96 40M108 40L109 41L108 40M116 40L117 41L116 40M93 41L94 42L93 41z"/>
<path style="fill:#fefefe; stroke:none;" d="M104 41L105 42L104 41z"/>
<path style="fill:#9ea8a0; stroke:none;" d="M92 42L93 43L92 42M95 42L94 44L94 45C96.1579 44.0224 96.5007 43.8117 95 42M97 42L98 43L97 42M117 42L118 43L117 42M88 43L90 46L88 43z"/>
<path style="fill:#fefefe; stroke:none;" d="M95 43L96 44L95 43z"/>
<path style="fill:#9ea8a0; stroke:none;" d="M120 43L121 44L120 43M90 44L91 45L90 44M122 44L123 45L122 44M86 45L87 46L86 45z"/>
<path style="fill:#fefefe; stroke:none;" d="M88.3333 45.6667L88.6667 46.3333L88.3333 45.6667z"/>
<path style="fill:#9ea8a0; stroke:none;" d="M124 45L125 46L124 45M87 47L87 49L89 47L87 47M128 48L129 49L128 48M129 49L130 50L129 49M130 50L131 51L130 50M83 51L84 52L83 51M131 51L132 52L131 51M79 52L80 53L79 52M132 52L133 53L132 52M82 54L81 58L82 58L82 54M78 55L79 56L78 55M134 55L135 56L134 55M135 57L136 58L135 57M136 59L137 60L136 59M74 60L74 66L75 66L74 60M137 61L138 62L137 61M162 61L163 62L162 61z"/>
<path style="fill:#62615f; stroke:none;" d="M163 61L163 62L170 62L163 61z"/>
<path style="fill:#9ea8a0; stroke:none;" d="M170 61L171 62L170 61M227 61L227 62L231 62L231 72C232.965 67.3179 232.6 61.9346 227 61M265 61L265 62L270 62L265 61M76 62L77 63L76 62M159 62L160 63L159 62z"/>
<path style="fill:#62615f; stroke:none;" d="M160 62L161 63L160 62z"/>
<path style="fill:#060908; stroke:none;" d="M170 87L170 83C159.874 82.8871 150.948 70.6255 164.004 65.7461C167.669 64.3764 171.452 66.0614 175 67C172.822 54.4556 143.753 65.7667 155.009 81.787C156.449 83.8369 158.685 85.1811 161.004 86.0301C163.907 87.0933 166.958 86.9913 170 87z"/>
<path style="fill:#9ea8a0; stroke:none;" d="M173 62L174 63L173 62z"/>
<path style="fill:#62615f; stroke:none;" d="M200 62L199 64L200 62z"/>
<path style="fill:#060908; stroke:none;" d="M201 62L200 67L204 66L201 62z"/>
<path style="fill:#62615f; stroke:none;" d="M202 62L203 63L202 62z"/>
<path style="fill:#060908; stroke:none;" d="M227 62L227 87L231 87C231 72.1673 238.998 72.1782 239 87L242 87C242 78.3195 243.092 66.9102 231 72L231 62L227 62z"/>
<path style="fill:#62615f; stroke:none;" d="M265 62L265 86L266 86L265 62z"/>
<path style="fill:#060908; stroke:none;" d="M266 62L266 73C266 75.9569 265.785 79.01 266.059 81.956C267.633 98.9098 295.647 72.7561 275.001 70.3179C273.011 70.0829 270.941 70.6452 269 71L270 62L266 62z"/>
<path style="fill:#9ea8a0; stroke:none;" d="M157 63L158 64L157 63z"/>
<path style="fill:#62615f; stroke:none;" d="M203 63L204 64L203 63M269 63L269 71L270 71L269 63z"/>
<path style="fill:#9ea8a0; stroke:none;" d="M77.3333 64.6667L77.6667 65.3333L77.3333 64.6667M138.333 64.6667L138.667 65.3333L138.333 64.6667M156 64L157 65L156 64M123 65L123 66L129 66L123 65M155 65L156 66L155 65z"/>
<path style="fill:#62615f; stroke:none;" d="M163 65L164 66L163 65z"/>
<path style="fill:#9ea8a0; stroke:none;" d="M164 65L164 66L169 66L164 65z"/>
<path style="fill:#62615f; stroke:none;" d="M169.667 65.3333L170.333 65.6667L169.667 65.3333M199 65L200 66L199 65z"/>
<path style="fill:#9ea8a0; stroke:none;" d="M119.667 66.3333L120.333 66.6667L119.667 66.3333M133 66L134 67L133 66M154 66L155 67L154 66z"/>
<path style="fill:#62615f; stroke:none;" d="M161 66L162 67L161 66z"/>
<path style="fill:#9ea8a0; stroke:none;" d="M172 66L173 67L172 66M203 66L204 67L203 66M117 67L118 68L117 67M136.667 67.3333L137.333 67.6667L136.667 67.3333M160 67L161 68L160 67z"/>
<path style="fill:#62615f; stroke:none;" d="M174 67L175 68L174 67z"/>
<path style="fill:#9ea8a0; stroke:none;" d="M201 67L202 68L201 67M115 68L116 69L115 68M153 68L154 69L153 68M159 68L160 69L159 68M72 69L73 70L72 69M75 69L76 70L75 69M113.914 70.3418C101.84 70.6737 97.5933 102.741 112.001 102.387C119.904 102.193 139.214 93.1423 134.142 83.0579C131.847 78.494 126.972 78.6671 123.004 76.3619C120.336 74.8121 117.179 70.2521 113.914 70.3418M158 69L159 70L158 69M185 69L185 70L189 70L185 69M216 69L216 70L219 70L216 69M235 69L235 70L238 70L235 69M273 69L273 70L276 70L273 69M152.333 70.6667L152.667 71.3333L152.333 70.6667z"/>
<path style="fill:#62615f; stroke:none;" d="M183 70L184 71L183 70z"/>
<path style="fill:#060908; stroke:none;" d="M184.015 70.7461C172.871 74.9993 180.271 90.589 190.956 86.2577C201.041 82.1694 194.212 66.8548 184.015 70.7461z"/>
<path style="fill:#62615f; stroke:none;" d="M190 70L191 71L190 70z"/>
<path style="fill:#9ea8a0; stroke:none;" d="M191 70L192 71L191 70z"/>
<path style="fill:#62615f; stroke:none;" d="M199 70L199 87L200 87L199 70z"/>
<path style="fill:#060908; stroke:none;" d="M200 70L200 87L203 87L203 70L200 70z"/>
<path style="fill:#62615f; stroke:none;" d="M203 70L203 87L204 87L203 70z"/>
<path style="fill:#9ea8a0; stroke:none;" d="M207 70L207 86L208 86L207 70z"/>
<path style="fill:#060908; stroke:none;" d="M208 70L208 87L212 87C212 72.3297 219 72.1814 219 87L223 87C223 80.9009 223.469 64.9004 213 72L208 70z"/>
<path style="fill:#62615f; stroke:none;" d="M214 70L215 71L214 70z"/>
<path style="fill:#9ea8a0; stroke:none;" d="M220 70L221 71L220 70M233 70L234 71L233 70z"/>
<path style="fill:#62615f; stroke:none;" d="M239 70L240 71L239 70z"/>
<path style="fill:#060908; stroke:none;" d="M246 70C246 79.0583 245.895 90.1199 258 85L262 87C262 81.6106 264.177 72.05 258 70C258 85.1454 250 85.2979 250 70L246 70z"/>
<path style="fill:#9ea8a0; stroke:none;" d="M250 70L250 82L251 82L250 70M257 70L257 81L258 81L257 70z"/>
<path style="fill:#62615f; stroke:none;" d="M261 70L262 71L261 70z"/>
<path style="fill:#9ea8a0; stroke:none;" d="M270 70L271 71L270 70z"/>
<path style="fill:#62615f; stroke:none;" d="M271 70L272 71L271 70M277 70L278 71L277 70M157 71L158 72L157 71M181 71L182 72L181 71z"/>
<path style="fill:#9ea8a0; stroke:none;" d="M193 71L194 72L193 71M212 71L213 72L212 71z"/>
<path style="fill:#62615f; stroke:none;" d="M221 71L222 72L221 71M232 71L233 72L232 71z"/>
<path style="fill:#9ea8a0; stroke:none;" d="M279 71L280 72L279 71M72.3333 72.6667L72.6667 73.3333L72.3333 72.6667M76 72L77 73L76 72z"/>
<path style="fill:#62615f; stroke:none;" d="M152 72L152 77L153 77L152 72z"/>
<path style="fill:#9ea8a0; stroke:none;" d="M157 72L157 77L158 77L157 72z"/>
<path style="fill:#62615f; stroke:none;" d="M180 72L181 73L180 72z"/>
<path style="fill:#9ea8a0; stroke:none;" d="M194 72L195 73L194 72M222 72L223 73L222 72z"/>
<path style="fill:#62615f; stroke:none;" d="M241 72L242 73L241 72z"/>
<path style="fill:#9ea8a0; stroke:none;" d="M280 72L281 73L280 72z"/>
<path style="fill:#fefefe; stroke:none;" d="M76 73L77 74L76 73z"/>
<path style="fill:#62615f; stroke:none;" d="M179 73L180 74L179 73M184 73L183 75L184 73z"/>
<path style="fill:#fefefe; stroke:none;" d="M185.313 74.0864C181.139 76.447 183.688 85.5217 188.687 82.8634C192.94 80.6015 190.292 71.2707 185.313 74.0864z"/>
<path style="fill:#9ea8a0; stroke:none;" d="M189 73L190 74L189 73M214 73L215 74L214 73M217 73L218 74L217 73z"/>
<path style="fill:#62615f; stroke:none;" d="M233 73L234 74L233 73z"/>
<path style="fill:#9ea8a0; stroke:none;" d="M234 73L235 74L234 73M236 73L237 74L236 73M242.333 73.6667L242.667 74.3333L242.333 73.6667z"/>
<path style="fill:#62615f; stroke:none;" d="M270 73L271 74L270 73z"/>
<path style="fill:#9ea8a0; stroke:none;" d="M271 73L272 74L271 73z"/>
<path style="fill:#fefefe; stroke:none;" d="M272.299 73.8904C268.594 75.0714 269.278 84.5231 273.924 83.2485C278.899 81.8837 277.487 72.2369 272.299 73.8904z"/>
<path style="fill:#9ea8a0; stroke:none;" d="M275 73L276 74L275 73M76 74L78 76L78 74L76 74M178 74L179 75L178 74M190 74L191 75L190 74z"/>
<path style="fill:#62615f; stroke:none;" d="M195 74L196 75L195 74z"/>
<path style="fill:#9ea8a0; stroke:none;" d="M218 74L219 75L218 74M232 74L233 75L232 74M237 74L238 75L237 74M276 74L277 75L276 74z"/>
<path style="fill:#62615f; stroke:none;" d="M281 74L282 75L281 74M178 75L179 76L178 75M191 75L192 76L191 75z"/>
<path style="fill:#9ea8a0; stroke:none;" d="M223 75L223 87L224 87L223 75z"/>
<path style="fill:#62615f; stroke:none;" d="M231 75L232 76L231 75M242 75L242 87L243 87L242 75M269 75L269 83L270 83L269 75M277 75L278 76L277 75M182 76L183 77L182 76z"/>
<path style="fill:#9ea8a0; stroke:none;" d="M191 76L191 81L192 81L191 76M196 76L196 81L197 81L196 76M231 76L231 87L232 87L231 76z"/>
<path style="fill:#62615f; stroke:none;" d="M238 76L238 87L239 87L238 76z"/>
<path style="fill:#9ea8a0; stroke:none;" d="M277.333 76.6667L277.667 77.3333L277.333 76.6667M73 77L74 78L73 77M152 77L153 78L152 77M182 77L182 80L183 80L182 77M282.333 77.6667L282.667 78.3333L282.333 77.6667M137.667 78.3333L138.333 78.6667L137.667 78.3333M158 78L159 79L158 78z"/>
<path style="fill:#62615f; stroke:none;" d="M114.667 79.3333L115.333 79.6667L114.667 79.3333M132 79L133 80L132 79z"/>
<path style="fill:#060908; stroke:none;" d="M133 79L136 86L139 79L133 79z"/>
<path style="fill:#62615f; stroke:none;" d="M153 79L154 80L153 79z"/>
<path style="fill:#9ea8a0; stroke:none;" d="M277.333 79.6667L277.667 80.3333L277.333 79.6667M74 80L75 81L74 80z"/>
<path style="fill:#060908; stroke:none;" d="M113 80L114 85C117.645 82.9057 117.025 80.7048 113 80z"/>
<path style="fill:#62615f; stroke:none;" d="M138 80L139 81L138 80M159 80L160 81L159 80z"/>
<path style="fill:#9ea8a0; stroke:none;" d="M174 80L174 86L175 86L174 80z"/>
<path style="fill:#62615f; stroke:none;" d="M182 80L183 81L182 80M112 81L112 84L113 84L112 81M117 81L118 82L117 81M133 81L134 82L133 81z"/>
<path style="fill:#9ea8a0; stroke:none;" d="M138.333 81.6667L138.667 82.3333L138.333 81.6667z"/>
<path style="fill:#62615f; stroke:none;" d="M154 81L155 82L154 81z"/>
<path style="fill:#9ea8a0; stroke:none;" d="M161 81L162 82L161 81M172 81L173 82L172 81z"/>
<path style="fill:#239f78; stroke:none;" d="M170 87L175 81L170 87z"/>
<path style="fill:#62615f; stroke:none;" d="M178 81L179 82L178 81M191 81L192 82L191 81M257 81L258 82L257 81M277 81L278 82L277 81M281 81L282 82L281 81M162 82L163 83L162 82z"/>
<path style="fill:#9ea8a0; stroke:none;" d="M163.667 82.3333L164.333 82.6667L163.667 82.3333M169.667 82.3333L170.333 82.6667L169.667 82.3333M178 82L179 83L178 82z"/>
<path style="fill:#62615f; stroke:none;" d="M183 82L184 83L183 82z"/>
<path style="fill:#9ea8a0; stroke:none;" d="M190 82L191 83L190 82z"/>
<path style="fill:#62615f; stroke:none;" d="M195 82L196 83L195 82M246 82L247 83L246 82z"/>
<path style="fill:#9ea8a0; stroke:none;" d="M256 82L257 83L256 82M276 82L277 83L276 82M281 82L282 83L281 82z"/>
<path style="fill:#62615f; stroke:none;" d="M117 83L118 84L117 83M134 83L135 84L134 83M179 83L180 84L179 83M184 83L185 84L184 83z"/>
<path style="fill:#9ea8a0; stroke:none;" d="M185 83L186 84L185 83z"/>
<path style="fill:#62615f; stroke:none;" d="M189 83L190 84L189 83z"/>
<path style="fill:#9ea8a0; stroke:none;" d="M246 83L247 84L246 83z"/>
<path style="fill:#62615f; stroke:none;" d="M251 83L252 84L251 83M255 83L256 84L255 83z"/>
<path style="fill:#9ea8a0; stroke:none;" d="M270 83L271 84L270 83z"/>
<path style="fill:#62615f; stroke:none;" d="M275 83L276 84L275 83M113 84L114 85L113 84M116 84L117 85L116 84z"/>
<path style="fill:#9ea8a0; stroke:none;" d="M137 84L138 85L137 84z"/>
<path style="fill:#62615f; stroke:none;" d="M157 84L158 85L157 84z"/>
<path style="fill:#9ea8a0; stroke:none;" d="M194 84L195 85L194 84z"/>
<path style="fill:#62615f; stroke:none;" d="M135 85L136 86L135 85z"/>
<path style="fill:#9ea8a0; stroke:none;" d="M158 85L159 86L158 85z"/>
<path style="fill:#62615f; stroke:none;" d="M159 85L160 86L159 85M181 85L182 86L181 85z"/>
<path style="fill:#9ea8a0; stroke:none;" d="M193 85L194 86L193 85M247 85L248 86L247 85M256.667 85.3333L257.333 85.6667L256.667 85.3333M279 85L280 86L279 85z"/>
<path style="fill:#62615f; stroke:none;" d="M136 86L137 87L136 86z"/>
<path style="fill:#9ea8a0; stroke:none;" d="M160.667 86.3333L161.333 86.6667L160.667 86.3333M171 86L172 87L171 86M182 86L183 87L182 86M191 86L192 87L191 86z"/>
<path style="fill:#62615f; stroke:none;" d="M207 86L208 87L207 86z"/>
<path style="fill:#9ea8a0; stroke:none;" d="M248 86L249 87L248 86M255 86L256 87L255 86z"/>
<path style="fill:#62615f; stroke:none;" d="M257 86L258 87L257 86z"/>
<path style="fill:#9ea8a0; stroke:none;" d="M266 86L267 87L266 86z"/>
<path style="fill:#62615f; stroke:none;" d="M267 86L268 87L267 86z"/>
<path style="fill:#9ea8a0; stroke:none;" d="M277 86L278 87L277 86M166 87L167 88L166 87M185 87L185 88L190 88L185 87M251 87L251 88L254 88L251 87M270 87L270 88L275 88L270 87M78 88L79 89L78 88M82 93L83 94L82 93M86 96L87 97L86 96M87 97L88 98L87 97M89 98L90 99L89 98M91 99L92 100L91 99M93 100L94 101L93 100M96 101L97 102L96 101M100.667 102.333L101.333 102.667L100.667 102.333z"/>
</svg>
