<?xml version="1.0" standalone="no"?>
<!DOCTYPE svg PUBLIC "-//W3C//DTD SVG 20010904//EN"
 "http://www.w3.org/TR/2001/REC-SVG-20010904/DTD/svg10.dtd">
<svg version="1.0" xmlns="http://www.w3.org/2000/svg"
 width="225.000000pt" height="225.000000pt" viewBox="0 0 225.000000 225.000000"
 preserveAspectRatio="xMidYMid meet">

<g transform="translate(0.000000,225.000000) scale(0.100000,-0.100000)"
fill="white" stroke="none">
<path d="M1206 1607 c116 -44 235 -132 270 -198 13 -27 12 -29 -28 -63 -44
-38 -128 -75 -192 -84 l-40 -5 21 34 c63 102 19 232 -92 275 -120 45 -245 -44
-245 -176 0 -131 97 -202 275 -203 102 -1 178 18 269 66 70 37 146 108 146
137 0 30 -85 110 -160 152 -65 37 -171 72 -245 82 -36 5 -33 3 21 -17z m-76
-122 c98 -51 59 -195 -52 -195 -105 0 -139 145 -46 197 31 17 63 16 98 -2z"/>
<path d="M862 1595 c-126 -43 -245 -123 -278 -186 -14 -28 -13 -30 26 -73 46
-50 153 -106 246 -130 93 -24 107 -19 33 13 -109 46 -209 127 -209 167 0 44
127 155 235 205 74 35 45 37 -53 4z"/>
<path d="M2210 860 c0 -5 5 -10 11 -10 5 0 7 5 4 10 -3 6 -8 10 -11 10 -2 0
-4 -4 -4 -10z"/>
<path d="M42 822 c-79 -74 -29 -202 78 -202 39 0 96 28 83 41 -6 6 -20 4 -39
-6 -43 -22 -72 -18 -105 14 -42 42 -41 99 2 135 34 29 75 33 105 11 24 -18 34
-19 34 -2 0 19 -44 37 -89 37 -29 0 -47 -7 -69 -28z"/>
<path d="M270 735 c0 -96 3 -115 15 -115 11 0 15 12 15 50 0 45 2 50 23 50 17
0 30 -13 52 -50 16 -27 35 -50 42 -50 18 0 17 6 -16 54 l-29 42 29 16 c23 14
29 24 29 52 0 48 -28 66 -102 66 l-58 0 0 -115z m124 79 c35 -34 6 -74 -55
-74 l-39 0 0 45 0 45 39 0 c23 0 46 -7 55 -16z"/>
<path d="M526 803 c15 -27 33 -57 40 -68 12 -18 10 -26 -16 -65 -17 -25 -25
-47 -19 -49 6 -1 11 -1 13 0 31 42 136 223 132 227 -9 8 -25 -11 -56 -64 l-28
-46 -33 56 c-19 31 -40 56 -47 56 -10 0 -6 -14 14 -47z"/>
<path d="M770 840 c0 -6 28 -10 65 -10 37 0 65 4 65 10 0 6 -28 10 -65 10 -37
0 -65 -4 -65 -10z"/>
<path d="M990 735 c0 -70 4 -115 10 -115 6 0 10 39 10 97 l0 97 71 -97 c39
-53 77 -97 85 -97 11 0 14 22 14 115 0 94 -3 115 -15 115 -11 0 -15 -19 -17
-92 l-3 -93 -65 92 c-36 51 -71 93 -77 93 -10 0 -13 -30 -13 -115z"/>
<path d="M1302 822 c-102 -95 13 -252 137 -187 28 14 61 68 61 100 0 13 -9 16
-47 13 -56 -4 -73 -28 -19 -28 44 0 45 -12 7 -51 -20 -20 -39 -29 -61 -29 -46
0 -90 47 -90 95 0 68 74 115 132 84 27 -14 38 -1 14 17 -11 8 -39 14 -62 14
-32 0 -49 -7 -72 -28z"/>
<path d="M1590 735 c0 -70 4 -115 10 -115 6 0 10 45 10 115 0 70 -4 115 -10
115 -6 0 -10 -45 -10 -115z"/>
<path d="M1718 735 c-2 -85 0 -115 9 -115 9 0 13 28 15 92 l3 93 65 -92 c36
-51 71 -92 78 -93 9 0 12 29 12 115 0 138 -18 156 -22 23 l-3 -93 -68 93 c-38
50 -72 92 -77 92 -5 0 -10 -52 -12 -115z"/>
<path d="M2010 840 c0 -6 32 -10 75 -10 43 0 75 4 75 10 0 6 -32 10 -75 10
-43 0 -75 -4 -75 -10z"/>
<path d="M740 740 c0 -6 33 -10 80 -10 47 0 80 4 80 10 0 6 -33 10 -80 10 -47
0 -80 -4 -80 -10z"/>
<path d="M2010 740 c0 -6 32 -10 75 -10 43 0 75 4 75 10 0 6 -32 10 -75 10
-43 0 -75 -4 -75 -10z"/>
<path d="M740 630 c0 -6 33 -10 80 -10 47 0 80 4 80 10 0 6 -33 10 -80 10 -47
0 -80 -4 -80 -10z"/>
<path d="M2005 630 c-4 -6 23 -10 74 -10 47 0 81 4 81 10 0 6 -31 10 -74 10
-41 0 -78 -4 -81 -10z"/>
</g>
</svg>
