<?xml version="1.0" standalone="no"?>
<!DOCTYPE svg PUBLIC "-//W3C//DTD SVG 20010904//EN"
 "http://www.w3.org/TR/2001/REC-SVG-20010904/DTD/svg10.dtd">
<svg version="1.0" xmlns="http://www.w3.org/2000/svg"
 width="640.000000pt" height="640.000000pt" viewBox="0 0 640.000000 640.000000"
 preserveAspectRatio="xMidYMid meet">

<g transform="translate(0.000000,640.000000) scale(0.100000,-0.100000)"
fill="#000000" stroke="none">
<path d="M3297 5476 c-21 -6 -35 -15 -31 -18 4 -4 15 -3 25 3 24 12 24 5 2
-21 -18 -20 -39 -28 -28 -10 4 6 -1 7 -11 3 -14 -5 -16 -3 -11 11 8 21 -1 19
-121 -32 -50 -20 -80 -38 -74 -44 11 -11 44 1 36 13 -3 5 3 6 12 2 12 -4 15
-3 10 5 -5 8 -1 11 11 10 40 -3 68 2 55 11 -11 6 -10 10 4 15 9 3 19 4 22 1 3
-3 -1 -5 -9 -5 -11 0 -11 -2 1 -10 12 -7 8 -11 -19 -16 -27 -6 -30 -9 -17 -16
10 -5 25 -6 34 -2 9 4 21 8 25 8 5 1 15 10 23 20 7 11 17 16 21 13 8 -9 -37
-58 -47 -52 -5 3 -11 -2 -14 -11 -3 -8 -11 -12 -17 -8 -7 4 -9 3 -5 -4 3 -6 2
-13 -4 -17 -9 -5 -14 7 -11 27 0 4 -6 5 -14 2 -19 -8 -19 -7 3 -32 18 -20 19
-20 113 74 53 52 91 94 85 93 -6 -1 -28 -6 -49 -13z m-57 -51 c0 -1 -6 -8 -14
-15 -12 -9 -15 -8 -13 8 0 12 6 18 14 15 7 -3 13 -6 13 -8z"/>
<path d="M4023 5410 c3 -10 1 -21 -4 -24 -5 -2 -4 -3 2 -2 7 1 19 12 27 24 13
20 13 22 -8 22 -17 0 -21 -4 -17 -20z"/>
<path d="M3935 5411 l-30 -7 32 -5 c19 -3 30 -2 26 4 -4 6 5 8 21 5 14 -3 26
-1 26 3 0 10 -31 10 -75 0z"/>
<path d="M2653 5403 c-7 -2 -13 -11 -13 -19 0 -9 -4 -12 -10 -9 -15 9 -50 -14
-44 -29 4 -9 -2 -12 -18 -10 -28 5 -74 -28 -64 -45 4 -7 16 -9 26 -6 13 4 22
-1 30 -15 6 -12 10 -23 8 -24 -2 -1 -12 -8 -22 -16 -18 -13 -19 -13 -11 0 6
12 5 13 -5 3 -11 -10 -11 -15 1 -30 7 -10 9 -15 5 -11 -5 4 -15 3 -21 -2 -9
-7 -16 -6 -25 5 -16 19 -19 58 -5 67 6 5 5 8 -3 8 -8 0 -10 5 -5 13 27 44
-237 -199 -308 -284 -36 -43 -38 -48 -21 -60 15 -12 16 -12 5 2 -11 13 -9 19
7 34 18 17 19 16 26 -10 4 -14 2 -31 -4 -37 -14 -14 -3 -48 15 -48 9 0 13 6 9
15 -3 8 -1 15 5 15 6 0 7 5 4 10 -3 6 -1 10 5 10 6 0 8 5 5 10 -3 6 5 10 19
10 28 0 43 17 28 32 -6 6 -14 5 -23 -4 -8 -7 -20 -13 -26 -12 -7 1 -18 2 -24
3 -5 0 -7 6 -3 12 4 8 9 7 15 -2 7 -11 9 -11 9 -1 0 7 5 10 10 7 6 -3 10 -2
10 4 0 5 -5 11 -11 13 -7 2 -4 15 8 36 11 17 23 29 26 26 13 -13 38 19 31 40
-4 12 -3 18 1 14 5 -4 14 -3 21 3 13 11 62 -7 64 -23 2 -17 15 -44 27 -56 15
-16 18 -36 3 -27 -5 3 -10 1 -10 -5 0 -17 25 -6 26 11 1 8 2 19 3 25 1 14 52
66 59 60 2 -3 -7 -19 -22 -36 -14 -17 -26 -39 -26 -49 0 -9 -5 -22 -12 -29
-15 -15 -38 -16 -38 -2 0 6 -9 19 -20 30 -11 11 -20 16 -20 12 0 -4 5 -13 12
-20 17 -17 2 -27 -17 -12 -9 7 -18 10 -22 6 -3 -3 -1 -6 6 -6 6 0 16 -11 21
-25 8 -20 15 -24 34 -21 23 4 24 3 15 -21 -5 -14 -7 -29 -3 -32 4 -3 9 0 11 7
4 10 8 10 19 1 8 -7 18 -8 22 -4 4 4 3 9 -3 12 -36 13 -38 21 -16 56 12 20 24
45 26 56 2 11 12 29 22 40 10 11 32 46 49 78 80 152 128 239 137 251 10 13 9
13 -10 5z m-31 -40 c-6 -2 -10 -8 -7 -12 2 -5 -2 -17 -10 -27 -14 -18 -15 -18
-12 6 2 26 14 40 32 39 6 0 4 -3 -3 -6z m-41 -55 c5 -9 6 -23 3 -32 -5 -12
-10 -10 -29 12 -13 15 -21 30 -19 34 7 11 36 2 45 -14z m-56 -8 c3 -5 1 -10
-4 -10 -6 0 -11 5 -11 10 0 6 2 10 4 10 3 0 8 -4 11 -10z m-55 -60 c0 -5 -7
-7 -15 -4 -8 4 -15 8 -15 10 0 2 7 4 15 4 8 0 15 -4 15 -10z m-27 -24 c-4 -6
1 -6 13 -2 10 4 15 4 11 0 -4 -4 2 -13 13 -21 11 -8 20 -21 20 -30 0 -14 2
-14 15 3 22 29 18 9 -6 -28 -18 -29 -20 -30 -15 -8 6 25 6 25 -5 3 -7 -13 -16
-23 -21 -23 -13 0 -38 -26 -38 -39 0 -16 -15 -13 -30 4 -11 13 -8 18 10 17 3
0 11 6 18 14 11 12 9 14 -7 14 -26 0 -38 19 -20 32 11 8 10 9 -3 4 -22 -7 -50
3 -43 15 3 4 13 5 22 2 11 -4 14 -3 9 6 -10 16 21 50 44 48 10 -1 16 -5 13
-11z m-113 -70 c0 -2 -8 -10 -17 -17 -16 -13 -17 -12 -4 4 13 16 21 21 21 13z
m43 -10 c4 -10 0 -12 -14 -9 -10 3 -16 9 -13 14 8 13 21 11 27 -5z m-93 -46
c0 -5 -5 -10 -11 -10 -5 0 -7 5 -4 10 3 6 8 10 11 10 2 0 4 -4 4 -10z m-49
-48 c-10 -20 -51 -58 -51 -49 0 6 52 66 58 67 1 0 -2 -8 -7 -18z"/>
<path d="M2560 5301 c0 -5 5 -13 10 -16 6 -3 10 -2 10 4 0 5 -4 13 -10 16 -5
3 -10 2 -10 -4z"/>
<path d="M2399 5203 c-13 -16 -12 -17 4 -4 9 7 17 15 17 17 0 8 -8 3 -21 -13z"/>
<path d="M2418 5189 c-15 -16 -15 -19 3 -38 20 -21 21 -21 68 6 6 4 -21 33
-38 42 -10 5 -22 2 -33 -10z"/>
<path d="M3772 5372 c-60 -16 -100 -31 -95 -36 5 -5 0 -6 -10 -3 -22 8 -218
-54 -214 -67 6 -17 27 -18 27 -2 0 27 27 18 35 -11 4 -16 9 -23 12 -16 2 7 -1
21 -7 32 -8 16 -8 21 2 21 7 0 24 3 38 6 19 4 22 3 10 -5 -11 -7 0 -9 40 -5
39 3 51 1 40 -6 -12 -8 -11 -10 7 -10 12 0 25 5 29 11 4 6 21 8 43 5 28 -4 31
-4 14 4 -27 11 -30 25 -7 34 24 9 28 7 14 -9 -13 -16 0 -21 16 -6 5 5 23 11
39 13 17 2 33 7 36 11 3 4 14 5 24 1 17 -7 17 -8 1 -20 -16 -12 -16 -13 3 -24
25 -13 28 -30 5 -30 -10 0 -14 -7 -12 -22 2 -13 10 -23 18 -23 8 0 16 10 18
23 4 23 16 29 27 12 3 -6 -1 -17 -9 -26 -14 -13 -22 -44 -12 -44 4 0 66 99 66
107 0 2 9 16 19 29 29 36 17 60 -32 68 -23 4 -51 9 -62 11 -11 2 -66 -9 -123
-23z m215 -15 c9 -9 8 -17 -3 -32 -13 -17 -16 -18 -25 -5 -8 11 -9 8 -5 -15 5
-24 4 -27 -4 -12 -6 9 -8 27 -5 40 7 20 6 21 -10 6 -14 -13 -15 -21 -6 -38 7
-11 8 -21 4 -21 -4 0 -2 -4 6 -9 9 -6 10 -11 2 -15 -6 -4 -11 -2 -11 3 0 23
-2 27 -21 47 -12 13 -17 27 -13 39 7 16 2 17 -49 11 -38 -5 -57 -4 -57 3 0 11
23 15 73 11 15 -1 27 3 27 8 0 13 81 -5 97 -21z m-257 -22 c-46 -18 -59 -18
-36 0 11 8 31 15 45 14 24 0 23 -2 -9 -14z m-50 -20 c14 -8 23 -15 20 -16 -22
-5 -103 -3 -113 4 -7 5 -3 6 10 2 13 -3 27 0 35 9 16 19 17 19 48 1z"/>
<path d="M3905 5360 c4 -6 15 -8 25 -5 12 4 22 -1 29 -12 5 -10 13 -14 17 -10
4 4 -1 14 -12 22 -22 17 -69 20 -59 5z"/>
<path d="M3104 5370 c-12 -5 -29 -18 -37 -30 -14 -21 -44 -20 -32 1 17 27 -12
25 -66 -4 -78 -41 -82 -44 -158 -97 -35 -25 -74 -52 -88 -61 -45 -30 -132
-118 -123 -124 6 -4 10 -1 10 5 0 6 5 8 11 4 8 -4 7 -9 -2 -15 -10 -6 -10 -9
-2 -9 6 0 15 5 18 10 3 6 16 8 28 4 18 -4 23 -1 23 15 0 12 -6 21 -13 21 -19
0 -24 17 -8 30 11 9 17 7 31 -8 17 -20 18 -20 51 14 18 19 38 32 43 29 6 -4
13 1 16 9 3 9 16 16 28 16 20 1 21 1 2 15 -24 18 -15 30 12 16 30 -16 40 -13
17 5 -20 15 -20 15 0 12 12 -2 21 3 23 15 2 9 -2 17 -8 17 -6 0 -8 -4 -5 -10
3 -5 0 -7 -8 -4 -8 3 -18 1 -22 -5 -3 -6 -12 -11 -18 -11 -7 0 6 12 28 25 26
16 49 23 66 20 18 -3 29 0 33 10 3 8 10 15 16 15 6 0 8 -5 4 -11 -5 -8 -1 -8
14 0 26 14 54 15 33 2 -9 -6 -10 -11 -2 -15 10 -6 15 6 12 27 -2 12 19 8 34
-7 17 -16 9 -27 -12 -19 -11 4 -14 1 -11 -13 2 -10 10 -18 17 -16 8 1 5 -9 -8
-27 -29 -40 -26 -66 8 -90 31 -22 82 -25 74 -5 -3 8 8 14 29 17 18 2 1 2 -38
0 -43 -3 -74 0 -78 6 -10 15 4 61 18 58 6 -1 11 11 11 28 0 34 20 52 39 36 10
-8 16 -7 25 3 10 12 9 20 -5 41 -13 20 -14 29 -5 38 24 24 12 32 -25 17z m-79
-18 c-54 -45 -88 -63 -98 -53 -9 9 -7 10 8 5 11 -4 17 -4 13 1 -4 4 12 18 35
30 45 25 57 30 42 17z m5 -32 c0 -5 -4 -10 -9 -10 -5 0 -18 -3 -28 -6 -16 -6
-16 -5 2 9 23 19 35 21 35 7z m103 -44 c-3 -5 -12 2 -19 15 -7 13 -10 28 -7
33 3 5 12 -2 19 -15 7 -13 10 -28 7 -33z m-327 -61 c-11 -8 -14 -15 -7 -15 7
0 9 -5 5 -12 -6 -9 -9 -9 -12 0 -2 7 -8 12 -13 12 -4 0 -6 -7 -3 -15 4 -10 -7
-21 -37 -35 -24 -11 -36 -18 -26 -16 9 3 17 1 17 -4 0 -12 -20 -13 -37 -2 -9
6 -3 14 20 27 17 10 45 31 60 47 16 15 34 28 40 28 7 0 3 -7 -7 -15z m-166
-135 c0 -5 -5 -10 -11 -10 -5 0 -7 5 -4 10 3 6 8 10 11 10 2 0 4 -4 4 -10z"/>
<path d="M3094 5250 c0 -13 4 -16 10 -10 7 7 7 13 0 20 -6 6 -10 3 -10 -10z"/>
<path d="M3336 5235 c-51 -19 -119 -37 -158 -41 -37 -4 -68 -10 -68 -14 0 -4
17 -5 38 -3 20 3 65 5 99 6 34 1 65 5 69 10 4 4 1 7 -7 7 -31 1 19 19 64 24
25 2 50 7 56 11 6 3 11 4 11 0 0 -3 -11 -10 -25 -15 -15 -6 -23 -15 -19 -24 4
-9 -1 -13 -13 -13 -13 2 -17 -4 -16 -20 2 -19 -2 -23 -26 -23 -16 0 -35 -2
-43 -5 -7 -3 -20 0 -28 5 -13 9 -13 11 0 20 11 7 -1 10 -40 9 -47 0 -51 -2
-30 -10 20 -8 22 -12 10 -19 -8 -5 -24 -10 -35 -10 -19 -1 -19 -1 -1 -11 13
-8 24 -8 41 1 14 8 31 9 42 5 22 -10 113 -13 107 -4 -3 6 15 18 39 24 4 2 10
4 15 5 4 1 10 2 15 1 10 -1 47 37 47 49 0 5 7 13 15 17 9 6 11 13 5 23 -8 12
-10 12 -16 -3 -8 -22 -34 -22 -34 -1 0 12 -6 15 -20 10 -52 -16 -61 -15 -25 3
62 30 29 24 -69 -14z"/>
<path d="M3836 5201 c-4 -5 -2 -12 3 -15 5 -4 12 -2 15 3 4 5 2 12 -3 15 -5 4
-12 2 -15 -3z"/>
<path d="M3853 5174 c-24 -22 -31 -40 -12 -29 6 4 9 0 7 -11 -4 -23 32 -31 59
-14 16 10 15 10 -4 5 -18 -5 -22 -3 -17 9 4 11 15 13 42 9 20 -3 39 -10 40
-15 2 -4 8 -6 13 -2 10 6 69 -26 69 -37 0 -4 -11 -14 -25 -23 -19 -13 -25 -13
-25 -3 0 7 5 18 11 24 7 7 8 13 0 17 -12 8 -26 -38 -16 -54 9 -15 51 -4 83 21
14 10 30 19 36 19 6 0 4 -5 -4 -10 -9 -6 -10 -10 -3 -10 6 0 20 -3 30 -6 15
-5 15 -4 3 5 -8 6 -12 11 -7 11 7 0 21 -6 64 -28 27 -14 33 -15 33 -3 0 5 -32
21 -72 35 -51 19 -73 24 -78 15 -6 -8 -10 -7 -16 3 -10 16 -95 48 -129 48 -11
0 -26 5 -31 10 -7 7 -15 2 -24 -15 -7 -14 -17 -25 -21 -25 -10 0 1 33 14 41 5
4 7 13 5 20 -2 11 -8 9 -25 -7z"/>
<path d="M2867 5173 c-12 -12 -7 -33 7 -33 8 0 13 7 12 15 -3 19 -11 27 -19
18z"/>
<path d="M3060 5170 c-12 -8 -12 -10 2 -15 9 -4 25 -5 35 -2 13 3 11 5 -7 7
-23 1 -23 2 -5 10 13 6 15 9 5 9 -8 0 -22 -3 -30 -9z"/>
<path d="M3484 5129 c0 -10 8 -16 21 -16 13 0 21 6 21 18 0 13 -7 18 -21 17
-12 -1 -21 -9 -21 -19z"/>
<path d="M3930 5126 c0 -2 7 -6 15 -10 8 -3 15 -1 15 4 0 6 -7 10 -15 10 -8 0
-15 -2 -15 -4z"/>
<path d="M2307 5080 c-3 -11 -16 -25 -29 -30 -21 -10 -21 -10 6 -5 25 5 28 3
24 -13 -4 -15 -1 -18 12 -15 10 3 20 13 23 23 3 13 0 16 -15 12 -16 -4 -18 -1
-12 22 3 14 4 26 1 26 -2 0 -7 -9 -10 -20z"/>
<path d="M1969 5029 c-30 -33 -56 -64 -58 -70 -1 -6 -14 -22 -27 -36 -13 -14
-24 -31 -24 -38 0 -7 -8 -19 -19 -29 -20 -18 -139 -250 -144 -281 -2 -11 -8
-29 -14 -40 -24 -45 -80 -281 -103 -435 -6 -41 -15 -79 -20 -84 -6 -6 -10 -19
-10 -30 0 -10 -3 -16 -7 -12 -8 8 -32 276 -34 386 l-2 65 -7 -55 c-4 -30 -7
-44 -8 -31 -1 13 -4 22 -7 19 -3 -3 1 -47 9 -99 8 -52 17 -132 20 -179 6 -80
5 -83 -9 -56 -8 15 -15 35 -15 42 0 8 -4 14 -10 14 -5 0 -10 15 -10 34 0 19
-4 37 -9 40 -4 3 -8 28 -7 56 1 28 -2 54 -6 56 -4 3 -8 15 -7 27 1 20 2 20 9
-3 5 -14 9 -19 10 -10 2 8 4 26 7 40 2 14 4 51 4 83 0 32 4 55 9 52 12 -7 23
53 17 91 -3 20 -5 14 -7 -21 l-2 -50 -9 40 c-7 26 -6 48 1 63 13 29 14 74 1
53 -5 -8 -7 -21 -3 -29 3 -9 1 -13 -5 -9 -5 3 -18 -10 -27 -31 -33 -67 -97
-247 -99 -274 -1 -16 -5 -28 -8 -28 -12 0 -49 -203 -59 -318 -5 -62 -7 -146
-4 -185 8 -127 25 -241 36 -248 6 -4 7 -12 4 -18 -8 -12 22 -129 34 -136 4 -2
5 6 3 18 -3 14 2 29 11 36 9 8 16 26 16 41 0 31 -35 76 -56 72 -16 -3 -20 63
-4 73 6 4 8 -7 5 -27 l-5 -33 10 33 c6 18 14 30 19 28 11 -7 6 43 -8 77 -6 16
-11 42 -11 58 0 43 -20 35 -21 -8 0 -21 -4 -47 -9 -58 -5 -13 -9 31 -9 118 -1
136 -1 137 22 137 26 0 52 36 40 53 -5 7 -10 28 -10 47 -1 25 0 28 4 10 6 -33
22 -49 19 -19 -8 62 -20 105 -33 114 -11 8 -12 19 -4 50 l9 40 2 -45 c1 -38 3
-41 10 -22 13 32 17 27 12 -15 -3 -21 -2 -36 1 -33 3 3 7 29 9 57 3 42 1 50
-9 41 -20 -16 -21 15 -3 97 23 107 53 146 57 74 l1 -34 -8 30 c-7 28 -7 27 -5
-8 2 -28 0 -35 -9 -28 -9 7 -11 -2 -11 -37 0 -37 4 -46 16 -44 12 2 19 -11 26
-48 6 -27 6 -47 1 -44 -14 9 -39 -18 -33 -35 6 -15 17 -88 18 -118 0 -7 6 -13
13 -13 7 0 10 8 7 20 -7 25 4 70 17 70 5 0 12 -21 16 -46 5 -38 10 -45 25 -41
21 6 37 -10 49 -50 l8 -28 2 30 c2 28 2 29 9 6 4 -14 13 -26 21 -29 11 -2 12
-1 3 5 -17 12 -25 83 -9 77 8 -3 12 -17 10 -32 l-4 -27 9 25 c4 14 4 33 -1 42
-12 24 -11 48 1 29 6 -10 8 4 5 40 -4 39 -2 50 5 39 9 -12 11 -11 11 8 0 18 5
22 34 22 66 0 83 18 45 49 -17 14 -21 30 -24 101 -1 47 -1 73 2 58 2 -16 9
-28 14 -28 6 0 7 9 3 23 -4 12 -8 30 -8 40 0 17 -1 17 -13 1 -7 -10 -13 -14
-13 -10 0 21 34 123 45 136 13 15 31 78 27 93 -2 5 3 5 9 1 9 -5 10 -2 6 9 -7
19 12 35 22 18 4 -6 18 -9 32 -7 13 3 28 5 32 5 5 1 5 6 1 13 -4 6 1 17 10 24
15 10 16 16 6 34 -9 17 -9 25 1 34 9 8 11 7 6 -6 -4 -11 2 -25 15 -38 20 -18
22 -18 34 -2 16 21 9 29 -11 12 -17 -14 -21 0 -5 16 6 6 13 23 16 37 4 24 1
27 -21 27 -15 0 -24 -4 -20 -9 3 -5 1 -12 -4 -15 -5 -3 -12 2 -15 11 -5 11 1
24 16 36 l23 19 -27 -16 c-16 -9 -28 -13 -28 -9 1 13 27 43 38 43 13 0 24 29
15 43 -4 7 1 6 11 -2 15 -13 19 -13 27 0 5 8 9 19 10 24 0 6 4 -1 8 -15 4 -14
14 -24 21 -22 9 2 10 -4 6 -20 -4 -13 -11 -36 -16 -53 -6 -24 -8 -25 -9 -8 -1
29 -12 34 -36 16 -20 -15 -20 -15 2 -9 18 6 22 2 28 -22 8 -38 -2 -78 -32
-123 -18 -27 -22 -44 -17 -64 l7 -27 13 31 c8 18 13 35 12 39 -1 4 2 14 5 22
17 37 86 304 81 311 -3 5 -1 9 4 9 9 0 37 98 30 105 -2 3 -29 -22 -59 -56z
m37 -1 c-3 -7 -9 -21 -12 -30 -4 -10 -11 -18 -16 -18 -6 0 -8 7 -4 15 7 20 4
19 -18 -7 -13 -15 -14 -19 -4 -15 29 11 38 -6 25 -48 -7 -22 -17 -41 -23 -42
-13 -3 -27 54 -17 70 3 6 1 7 -5 3 -21 -13 -13 4 21 44 30 37 66 55 53 28z
m-96 -117 c-12 -23 -33 -19 -24 4 4 8 10 12 15 9 5 -3 9 0 9 7 0 7 3 10 6 7 3
-4 1 -16 -6 -27z m-85 -181 c-4 -63 -3 -63 -20 -57 -8 4 -17 2 -20 -3 -8 -13
-35 -13 -35 1 0 5 5 7 10 4 6 -4 10 7 10 25 0 24 4 31 15 26 15 -5 35 21 35
46 -1 7 -7 0 -15 -17 -17 -37 -19 -29 -4 15 15 43 28 21 24 -40z m68 -110 c-3
-12 -8 -19 -11 -16 -5 6 5 36 12 36 2 0 2 -9 -1 -20z m-431 -152 c-7 -28 -9
-23 -9 32 -1 56 1 60 8 33 6 -19 6 -47 1 -65z m-25 0 c0 -24 1 -56 2 -73 2
-27 3 -28 12 -10 7 14 8 9 3 -20 -3 -22 -9 -44 -14 -50 -4 -5 -10 -19 -13 -30
-3 -12 -5 -4 -6 18 0 20 3 37 9 37 10 0 3 54 -12 83 -8 15 6 87 17 87 1 0 2
-19 2 -42z m226 -285 c4 -16 1 -23 -9 -23 -8 0 -14 7 -14 15 0 8 -4 15 -10 15
-5 0 -10 -7 -10 -15 0 -8 -4 -15 -10 -15 -5 0 -10 6 -10 14 0 8 5 18 10 21 6
3 10 23 11 43 0 31 2 34 10 17 6 -15 8 -8 8 30 -3 94 4 100 11 10 4 -49 10
-100 13 -112z m-346 -85 c-3 -7 -5 -2 -5 12 0 14 2 19 5 13 2 -7 2 -19 0 -25z
m20 -10 c-3 -8 -6 -5 -6 6 -1 11 2 17 5 13 3 -3 4 -12 1 -19z m90 -10 c-3 -7
-5 -2 -5 12 0 14 2 19 5 13 2 -7 2 -19 0 -25z m-103 -14 c3 -9 6 -28 5 -42 0
-15 -3 -21 -6 -13 -5 11 -7 11 -14 0 -5 -9 -7 2 -6 29 1 43 10 54 21 26z m173
-56 c-3 -8 -6 -5 -6 6 -1 11 2 17 5 13 3 -3 4 -12 1 -19z m-172 -48 c0 -13 -6
-25 -12 -27 -9 -3 -13 6 -13 27 0 21 4 30 13 28 6 -3 12 -15 12 -28z m13 -345
l1 -20 -9 20 c-7 17 -9 17 -9 3 -1 -10 -6 -18 -12 -18 -6 0 -8 7 -5 16 3 9 9
28 13 42 l7 27 7 -25 c4 -14 7 -34 7 -45z m6 -141 c-3 -12 -1 -25 4 -28 6 -3
8 -16 4 -28 -5 -19 -7 -17 -19 17 -9 26 -10 41 -3 45 6 4 8 15 4 26 -5 15 -4
16 5 4 5 -8 8 -25 5 -36z"/>
<path d="M1950 4943 c0 -13 5 -23 10 -23 13 0 13 11 0 30 -8 12 -10 11 -10 -7z"/>
<path d="M4077 5056 c-3 -7 0 -13 6 -13 43 1 67 -4 62 -14 -4 -6 -13 -8 -19
-6 -7 3 -19 1 -26 -3 -12 -7 -12 -11 0 -25 15 -19 55 -16 55 3 0 8 8 19 18 26
21 16 23 30 2 22 -8 -3 -15 -1 -15 3 0 5 -9 7 -19 4 -10 -3 -28 0 -39 6 -15 8
-21 7 -25 -3z"/>
<path d="M2551 5021 c-14 -15 -42 -36 -61 -46 -56 -28 -63 -36 -44 -50 22 -15
9 -38 -17 -30 -11 4 -19 2 -19 -4 0 -6 7 -11 16 -11 25 0 103 53 103 70 0 12
-2 12 -13 -2 -7 -10 -17 -18 -21 -18 -5 0 -1 8 8 18 10 10 14 23 10 28 -5 5 1
1 12 -8 24 -20 65 -20 58 -1 -3 7 -12 13 -20 13 -8 0 -11 -5 -7 -12 4 -7 3 -8
-4 -4 -7 4 -12 14 -12 22 0 8 4 12 10 9 5 -3 7 0 4 8 -7 18 27 32 37 15 4 -6
5 -16 3 -20 -3 -4 -1 -8 5 -8 5 0 16 -7 24 -15 8 -8 27 -16 42 -19 21 -4 26
-1 23 12 -2 11 -11 16 -26 14 -14 -2 -22 2 -22 11 0 14 -40 57 -54 57 -4 0
-20 -13 -35 -29z m-77 -76 c-4 -8 -1 -15 6 -15 6 0 8 -5 4 -11 -5 -8 -10 -6
-16 5 -5 9 -6 21 -3 26 9 15 15 12 9 -5z"/>
<path d="M4243 5035 c0 -7 9 -11 21 -8 21 4 21 4 1 -11 -11 -9 -25 -14 -31
-12 -12 5 -29 -22 -20 -31 2 -3 21 7 42 21 20 14 42 22 48 19 5 -4 1 -10 -10
-15 -16 -7 -15 -8 6 -4 14 2 34 1 44 -3 20 -8 20 -8 0 -12 -10 -3 -38 -5 -61
-4 -44 1 -46 -8 -3 -20 20 -5 22 -4 10 5 -13 9 -12 11 5 8 16 -3 19 -10 17
-40 -2 -21 -1 -47 3 -58 9 -28 35 -26 34 3 0 12 -3 16 -6 10 -10 -27 -23 -11
-23 27 0 22 5 40 10 40 6 0 10 -6 11 -12 1 -7 4 -2 8 11 4 14 13 27 20 29 8 3
11 0 7 -7 -5 -7 -1 -9 8 -5 16 6 17 5 20 -51 1 -25 5 -30 26 -31 45 -1 50 -4
50 -24 0 -21 -35 -46 -45 -31 -7 12 -44 6 -59 -9 -16 -16 12 -30 59 -28 l40 1
-40 4 c-57 6 -67 22 -14 21 58 -1 73 3 81 25 4 10 12 16 16 13 5 -3 9 1 9 9 0
8 -4 12 -8 9 -4 -2 -10 0 -14 6 -4 6 -10 8 -14 6 -4 -3 -13 -1 -20 3 -10 6 -9
10 4 14 11 5 14 3 9 -6 -5 -9 -4 -9 6 0 9 8 21 6 49 -10 20 -11 31 -15 26 -9
-12 13 -66 44 -189 107 -114 60 -133 67 -133 50z m222 -110 l20 -16 -20 10
c-11 5 -29 17 -40 26 l-20 16 20 -10 c11 -5 29 -17 40 -26z m-30 -5 c3 -5 -1
-10 -9 -10 -9 0 -16 5 -16 10 0 6 4 10 9 10 6 0 13 -4 16 -10z"/>
<path d="M2700 5019 c0 -9 6 -19 13 -22 7 -3 12 4 12 18 0 12 -6 22 -12 22 -7
0 -13 -8 -13 -18z"/>
<path d="M4062 4993 c-7 -7 -24 -13 -37 -13 -25 0 -36 -19 -12 -21 54 -7 97
15 73 37 -8 8 -15 7 -24 -3z"/>
<path d="M4160 4968 c0 -7 11 -14 24 -14 17 -1 23 2 19 12 -6 17 -43 19 -43 2z"/>
<path d="M2087 4895 c-17 -25 -43 -65 -57 -89 -14 -24 -40 -70 -58 -101 -18
-31 -31 -60 -28 -63 3 -3 6 1 7 9 0 8 9 -11 19 -41 11 -30 17 -41 13 -25 -11
51 -9 80 5 78 6 -2 12 1 12 6 0 5 -6 11 -12 14 -10 3 -10 10 1 30 17 33 21 30
36 -28 15 -61 30 -53 31 15 2 77 5 91 14 50 6 -30 7 -26 6 21 -1 47 -3 53 -13
40 -7 -9 -16 -33 -19 -53 -4 -21 -10 -38 -15 -38 -12 0 -11 37 1 45 6 4 8 10
6 14 -7 11 60 112 68 103 4 -4 7 -2 6 3 -6 30 1 38 15 19 15 -18 15 -18 8 0
-5 15 -3 17 8 11 12 -8 12 -6 0 8 -7 9 -15 17 -17 17 -3 0 -19 -20 -37 -45z"/>
<path d="M2150 4893 c0 -16 30 -44 41 -38 12 8 12 16 0 13 -5 -2 -17 6 -25 17
-8 11 -16 15 -16 8z"/>
<path d="M1891 4856 c-8 -9 -11 -19 -7 -23 9 -9 29 13 24 27 -2 8 -8 7 -17 -4z"/>
<path d="M1931 4844 c0 -11 3 -14 6 -6 3 7 2 16 -1 19 -3 4 -6 -2 -5 -13z"/>
<path d="M4565 4841 c4 -15 2 -21 -9 -22 -32 -3 -36 -4 -38 -14 -2 -5 8 -12
21 -13 16 -3 21 0 16 8 -5 8 -2 10 11 6 11 -3 25 -2 32 2 9 6 5 14 -14 31 -25
22 -26 22 -19 2z"/>
<path d="M4600 4843 c14 -11 32 -23 40 -26 12 -4 11 -6 -2 -6 -10 -1 -18 -6
-18 -11 0 -7 6 -7 19 0 16 8 23 6 33 -9 8 -11 20 -21 28 -23 8 -2 18 -7 22
-13 5 -6 8 -6 8 1 0 6 -27 30 -59 52 -64 45 -114 70 -71 35z"/>
<path d="M2111 4831 c-8 -5 -16 -17 -17 -26 -2 -12 4 -15 24 -13 19 2 27 9 27
22 0 23 -14 29 -34 17z"/>
<path d="M2213 4824 c-7 -18 11 -39 26 -30 17 11 13 46 -4 46 -9 0 -18 -7 -22
-16z"/>
<path d="M2473 4826 c-41 -13 -42 -26 -3 -27 17 -1 42 -2 58 -3 21 -1 27 4 27
18 0 23 -31 27 -82 12z m77 -15 c0 -9 -57 -7 -67 3 -4 3 10 6 30 6 21 0 37 -4
37 -9z"/>
<path d="M4644 4757 c-18 -21 -13 -44 10 -41 39 4 41 5 21 14 -17 7 -16 9 10
9 l30 1 -29 15 c-33 18 -28 17 -42 2z"/>
<path d="M4729 4733 c-13 -15 -12 -15 8 -5 14 8 24 9 28 2 3 -5 0 -10 -9 -10
-8 0 -16 -5 -18 -10 -2 -6 -12 -12 -24 -12 -12 -1 -20 -9 -20 -20 0 -14 7 -18
26 -16 15 2 24 8 22 17 -3 14 15 31 34 31 5 0 20 -13 32 -30 l22 -29 -33 2
c-22 2 -34 -1 -34 -10 0 -7 9 -13 19 -13 10 0 18 5 18 11 0 5 5 7 10 4 6 -4
18 -1 27 7 15 12 15 11 5 -9 -16 -29 -15 -36 3 -29 17 6 47 -32 37 -48 -3 -6
5 -3 20 6 25 16 26 16 21 -1 -3 -10 0 -22 6 -25 5 -4 8 -13 4 -21 -3 -8 0 -15
7 -15 6 0 8 -6 5 -12 -4 -7 3 -2 15 12 l21 25 -16 -34 c-12 -24 -14 -36 -6
-44 11 -11 12 -9 15 13 0 6 4 10 9 10 4 0 14 0 22 0 9 0 15 -9 15 -21 0 -14 5
-19 15 -16 15 7 55 -36 55 -59 0 -8 7 -14 16 -14 12 0 8 9 -14 38 -76 94 -134
157 -143 154 -6 -1 -8 1 -5 6 3 5 -6 20 -19 32 -14 13 -25 21 -25 18 0 -3 -32
26 -71 64 -39 37 -74 68 -79 68 -4 0 -14 -7 -21 -17z m186 -135 c3 -3 -1 -8
-9 -11 -8 -3 -17 0 -19 8 -5 13 16 15 28 3z m85 -92 c9 -12 8 -15 -8 -13 -12
0 -18 6 -15 14 6 16 8 16 23 -1z"/>
<path d="M1847 4643 c-7 -35 12 -103 30 -104 7 -1 18 -2 25 -3 6 -1 17 17 24
39 6 22 12 33 13 24 1 -17 31 -48 31 -32 0 15 -24 63 -32 63 -4 0 -12 -16 -19
-35 -17 -47 -35 -51 -55 -13 -13 25 -14 36 -5 50 13 21 14 38 2 38 -5 0 -11
-12 -14 -27z"/>
<path d="M4633 4646 c2 -6 12 -11 22 -11 10 0 20 5 22 11 2 5 -8 10 -22 10
-14 0 -24 -5 -22 -10z"/>
<path d="M1980 4639 c0 -5 5 -7 10 -4 6 3 10 8 10 11 0 2 -4 4 -10 4 -5 0 -10
-5 -10 -11z"/>
<path d="M1743 4633 c5 -7 2 -25 -6 -40 -8 -15 -12 -34 -10 -41 3 -7 -4 -23
-16 -36 -17 -18 -19 -28 -12 -53 5 -17 14 -40 20 -50 8 -14 9 -11 4 16 -5 27
-2 37 13 49 18 13 18 14 -6 7 -25 -8 -25 -7 -6 13 10 12 22 19 26 17 4 -3 6
18 4 45 -2 31 0 48 6 45 17 -10 11 12 -7 26 -11 9 -14 10 -10 2z m7 -63 c0 -5
-5 -10 -11 -10 -5 0 -7 5 -4 10 3 6 8 10 11 10 2 0 4 -4 4 -10z"/>
<path d="M1774 4576 c-6 -20 -7 -36 -2 -36 12 0 20 24 16 50 -2 17 -5 14 -14
-14z"/>
<path d="M4811 4538 c-9 -18 -10 -19 -6 -3 5 15 3 17 -6 8 -9 -9 -5 -19 20
-44 25 -25 35 -29 44 -20 9 9 7 11 -8 6 -16 -4 -15 -3 3 6 27 15 28 23 2 49
-26 26 -34 25 -49 -2z"/>
<path d="M2020 4511 c0 -23 5 -30 26 -35 34 -9 47 4 38 38 -5 21 -12 26 -35
26 -25 0 -29 -4 -29 -29z m58 -15 c3 -13 -1 -17 -14 -14 -11 2 -20 11 -22 22
-3 13 1 17 14 14 11 -2 20 -11 22 -22z"/>
<path d="M1820 4490 c0 -5 5 -10 10 -10 6 0 10 5 10 10 0 6 -4 10 -10 10 -5 0
-10 -4 -10 -10z"/>
<path d="M1757 4453 c4 -11 3 -14 -5 -9 -7 4 -12 2 -12 -4 0 -7 6 -10 13 -8
15 6 22 38 8 38 -6 0 -7 -7 -4 -17z"/>
<path d="M4999 4428 c-4 -14 -3 -58 2 -58 14 0 18 14 9 31 -7 12 -6 19 3 22 9
4 9 6 0 6 -7 1 -13 0 -14 -1z"/>
<path d="M5044 4410 c0 -10 4 -16 8 -14 4 3 8 -2 8 -10 0 -9 -4 -16 -10 -16
-5 0 -7 -7 -4 -15 4 -8 1 -15 -5 -15 -6 0 -11 -4 -11 -9 0 -13 27 -21 45 -14
14 5 14 8 -1 24 -10 11 -14 22 -11 26 4 4 14 -2 22 -13 19 -25 19 -15 0 23
-21 42 -41 58 -41 33z"/>
<path d="M1700 4400 c0 -3 7 -27 15 -54 8 -28 13 -64 9 -81 -4 -22 -1 -35 11
-45 23 -19 35 2 33 55 l-1 40 -4 -40 c-3 -22 -8 -43 -12 -48 -6 -6 -9 23 -13
130 -1 18 -6 29 -11 26 -5 -3 -13 1 -18 8 -5 8 -9 12 -9 9z"/>
<path d="M4954 4345 c-4 -9 -2 -21 5 -28 6 -6 11 -9 12 -6 0 2 2 12 4 21 4 24
-13 34 -21 13z"/>
<path d="M5115 4350 c-4 -6 -1 -17 5 -25 9 -11 9 -15 1 -15 -9 0 -9 -5 -1 -20
7 -14 8 -26 0 -39 -15 -29 -13 -51 5 -45 11 5 13 10 5 19 -5 6 -7 15 -3 19 4
4 7 20 8 36 0 30 16 42 24 19 2 -7 -1 -9 -8 -5 -14 9 -14 0 0 -26 8 -15 8 -19
0 -14 -6 4 -11 0 -11 -10 0 -12 3 -14 13 -6 16 13 52 9 52 -6 0 -6 3 -14 8
-18 11 -11 9 -26 -3 -19 -6 4 -2 -9 7 -28 10 -19 20 -31 21 -26 2 5 -2 16 -8
25 -7 8 -10 18 -6 21 9 9 26 -16 26 -38 0 -9 7 -22 15 -29 8 -7 12 -16 9 -21
-3 -5 0 -17 6 -26 11 -17 11 -17 6 0 -11 34 11 8 28 -35 10 -24 23 -53 29 -65
20 -43 0 -33 -23 11 -34 68 -47 65 -49 -9 -2 -60 9 -89 25 -64 4 8 3 9 -4 5
-9 -5 -11 7 -10 43 1 28 5 51 8 51 9 0 39 -80 29 -80 -6 0 -6 -7 0 -19 6 -10
7 -22 3 -26 -4 -5 -2 -5 5 -1 6 3 10 15 8 26 -3 14 2 20 16 20 12 0 19 -7 19
-19 0 -11 4 -23 10 -26 8 -5 8 -39 1 -98 -1 -5 -5 -5 -11 -2 -6 4 -7 -1 -3
-11 5 -14 8 -13 20 7 13 22 14 22 10 3 -3 -13 1 -21 9 -21 15 0 19 23 5 31
-11 7 -21 46 -12 46 11 0 29 -62 27 -92 -2 -15 -8 -34 -15 -42 -15 -18 -9 -32
19 -39 19 -5 21 -2 15 26 -5 24 -4 28 4 17 15 -22 13 1 -4 51 -57 165 -181
410 -270 534 -25 36 -48 65 -50 65 -2 0 -7 -5 -10 -10z m75 -92 c0 -6 -7 -5
-15 2 -8 7 -15 17 -15 22 0 6 7 5 15 -2 8 -7 15 -17 15 -22z"/>
<path d="M1671 4304 c0 -11 3 -14 6 -6 3 7 2 16 -1 19 -3 4 -6 -2 -5 -13z"/>
<path d="M1350 4230 c0 -5 5 -10 10 -10 6 0 10 5 10 10 0 6 -4 10 -10 10 -5 0
-10 -4 -10 -10z"/>
<path d="M1476 4218 c-3 -13 -5 -32 -5 -43 1 -11 5 -2 10 19 10 42 6 62 -5 24z"/>
<path d="M5170 4198 c0 -10 -6 -18 -13 -18 -8 0 -14 -7 -14 -15 0 -10 11 -15
34 -15 38 0 41 8 13 41 -16 20 -19 21 -20 7z"/>
<path d="M5204 4117 c-3 -16 -4 -31 0 -34 3 -4 6 2 7 13 0 18 1 18 9 -1 l9
-20 0 20 c0 11 -3 27 -8 34 -8 12 -11 9 -17 -12z"/>
<path d="M5240 4113 c0 -4 5 -15 10 -23 8 -13 10 -13 10 2 0 9 -4 20 -10 23
-5 3 -10 3 -10 -2z"/>
<path d="M1065 3942 c-7 -44 0 -82 16 -82 6 0 6 7 -1 19 -13 25 -13 64 0 56 5
-3 6 -13 3 -22 -4 -10 -2 -14 4 -10 14 9 24 -30 14 -57 -4 -11 -7 -68 -5 -126
1 -58 0 -92 -3 -75 -3 16 -10 33 -16 37 -7 4 -8 29 -1 81 9 67 8 76 -8 86 -16
10 -18 7 -17 -31 l2 -43 8 35 c6 26 7 20 3 -25 -17 -219 -18 -256 0 -249 10 4
16 17 15 38 0 23 -2 26 -8 13 -4 -12 -7 4 -8 39 -1 38 2 53 8 43 5 -8 9 -26 9
-41 0 -16 5 -28 11 -28 10 0 7 -31 -7 -82 -3 -10 -1 -18 4 -18 14 0 25 81 24
180 0 66 2 78 9 55 5 -16 7 -35 5 -42 -3 -6 1 -14 8 -16 8 -3 11 -17 8 -36 -3
-19 -8 -28 -16 -24 -6 3 -8 3 -5 -1 4 -4 3 -24 -2 -44 -5 -20 -6 -57 -2 -82
l6 -45 12 65 c7 36 10 71 8 77 -3 7 0 13 7 13 6 0 8 5 5 10 -3 6 1 13 9 16 9
3 16 13 16 21 0 12 3 13 14 4 13 -11 20 -91 7 -89 -18 2 -34 -3 -28 -9 4 -3 2
-12 -4 -20 -6 -7 -8 -14 -3 -14 5 -1 16 -2 24 -3 8 0 15 -11 15 -23 0 -12 4
-26 9 -30 5 -4 6 14 3 41 -3 27 -1 59 5 71 8 17 -3 53 -53 181 -35 87 -71 174
-80 193 l-17 35 -7 -42z m61 -119 c-3 -8 -1 -11 4 -8 12 7 13 -5 2 -20 -13
-18 -35 -17 -28 0 3 9 6 26 6 36 0 12 4 17 11 14 6 -4 8 -14 5 -22z m43 -90
l20 -52 -21 4 c-26 5 -25 4 -34 39 -5 21 -4 27 5 22 6 -4 11 -2 11 3 0 6 -4
11 -10 11 -5 0 -7 7 -3 15 7 20 7 20 32 -42z"/>
<path d="M1150 3725 c0 -5 5 -17 10 -25 5 -8 10 -10 10 -5 0 6 -5 17 -10 25
-5 8 -10 11 -10 5z"/>
<path d="M5290 3951 c0 -25 6 -27 13 -6 4 8 2 17 -3 20 -6 4 -10 -3 -10 -14z"/>
<path d="M5304 3807 c-2 -68 -1 -69 6 -22 7 45 8 42 7 -30 -2 -70 1 -80 17
-83 25 -5 46 16 27 27 -7 5 -10 14 -7 20 4 6 3 11 -3 11 -6 0 -7 7 -4 17 4 10
2 14 -4 10 -7 -4 -12 14 -15 49 -7 83 -23 84 -24 1z"/>
<path d="M5360 3855 c0 -8 -4 -15 -10 -15 -5 0 -9 -10 -9 -22 1 -18 2 -19 6
-5 2 9 8 15 13 12 4 -3 10 6 12 20 3 14 1 25 -3 25 -5 0 -9 -7 -9 -15z"/>
<path d="M1353 3720 c0 -25 2 -35 4 -22 2 12 2 32 0 45 -2 12 -4 2 -4 -23z"/>
<path d="M1407 3684 c-4 -4 -7 -17 -7 -29 0 -13 -6 -28 -14 -34 -13 -11 -14
-39 -7 -108 3 -28 20 -11 26 25 4 20 15 49 25 63 21 30 20 83 -2 87 -8 1 -17
0 -21 -4z m17 -75 c-19 -21 -51 -14 -34 6 6 8 20 13 30 12 18 -1 18 -3 4 -18z"/>
<path d="M4600 3674 c-40 -12 -41 -13 -10 -9 19 2 45 7 58 11 13 4 22 2 22 -5
0 -6 -13 -11 -29 -11 -17 0 -33 -5 -37 -12 -5 -8 2 -9 27 -4 19 4 45 10 59 12
46 9 42 21 -11 28 -19 2 -54 -2 -79 -10z"/>
<path d="M5464 3663 c5 -32 -8 -54 -18 -31 -2 7 -4 4 -3 -7 0 -11 -3 -37 -7
-57 -8 -36 -11 -38 -45 -38 -27 0 -44 -7 -61 -25 -12 -13 -26 -22 -30 -20 -4
3 -13 -2 -20 -10 -10 -13 -8 -15 13 -15 14 0 29 5 32 10 3 6 16 10 29 10 12 0
37 11 56 25 31 23 58 25 45 4 -3 -5 -3 -24 1 -43 4 -27 13 -37 35 -45 19 -7
29 -17 29 -30 0 -25 -6 -25 -40 -5 -23 14 -23 14 -2 9 13 -4 22 -2 22 4 0 6
-9 11 -19 11 -11 0 -22 4 -26 10 -3 5 -12 7 -20 4 -8 -4 -12 -10 -9 -15 3 -5
10 -6 16 -3 7 4 8 2 4 -5 -6 -9 -14 -8 -32 3 -13 9 -31 16 -41 16 -15 0 -16 2
-3 10 8 5 10 10 5 10 -6 0 -16 -5 -23 -12 -10 -10 6 -18 75 -40 47 -15 92 -28
99 -28 8 0 7 26 -7 101 -10 56 -21 109 -25 118 -4 9 -8 28 -10 42 -2 14 -8 37
-14 50 -10 22 -10 21 -6 -8z m8 -55 c-14 -14 -16 -42 -2 -33 6 3 10 -3 10 -14
0 -10 5 -21 11 -23 9 -3 9 -9 0 -25 -14 -28 -14 -60 0 -69 9 -5 10 1 5 20 -3
14 -2 26 3 26 5 0 11 -15 13 -33 3 -29 1 -33 -15 -29 -18 5 -37 39 -37 68 0 8
5 12 10 9 6 -3 10 -1 10 4 0 6 -4 11 -9 11 -14 0 -22 72 -9 87 6 7 13 13 16
13 3 0 1 -5 -6 -12z"/>
<path d="M4480 3648 c0 -5 26 -7 58 -7 61 1 55 6 -15 11 -24 2 -43 0 -43 -4z"/>
<path d="M4662 3613 c-22 -4 -23 -5 -5 -18 16 -13 15 -14 -15 -15 -20 0 -31 4
-27 10 3 6 -2 10 -12 11 -10 1 -40 3 -68 5 -35 3 -46 1 -35 -6 13 -8 12 -10
-2 -10 -10 0 -18 5 -18 11 0 8 -6 7 -16 -2 -10 -8 -29 -20 -43 -27 l-26 -12
30 6 c17 4 54 6 83 5 29 -1 52 3 52 9 0 5 10 10 23 9 21 0 21 -1 2 -9 -14 -6
4 -9 58 -11 42 -1 100 -2 128 -3 63 -1 82 8 37 19 -22 5 -27 9 -15 12 9 2 17
9 17 14 0 12 -67 12 -75 -1 -3 -5 -18 -10 -33 -9 l-27 1 25 8 c19 6 21 8 5 8
-11 -1 -30 -3 -43 -5z m96 -30 c-10 -2 -28 -2 -40 0 -13 2 -5 4 17 4 22 1 32
-1 23 -4z"/>
<path d="M4400 3589 c0 -5 5 -7 10 -4 6 3 10 8 10 11 0 2 -4 4 -10 4 -5 0 -10
-5 -10 -11z"/>
<path d="M4846 3587 c8 -5 27 -4 42 1 25 8 23 9 -15 8 -28 0 -37 -3 -27 -9z"/>
<path d="M4925 3580 c-3 -5 3 -10 14 -10 12 0 21 5 21 10 0 6 -6 10 -14 10 -8
0 -18 -4 -21 -10z"/>
<path d="M1235 3528 c2 -60 14 -91 31 -84 9 3 17 -2 20 -12 3 -9 10 -25 15
-35 13 -23 2 -37 -12 -17 -6 10 -8 -4 -7 -43 1 -33 4 -54 6 -48 3 9 8 9 18 0
23 -19 26 -4 4 24 -24 31 -28 56 -5 37 13 -11 14 -8 11 17 -4 34 -68 203 -77
203 -3 0 -5 -19 -4 -42z m25 -20 c0 -7 3 -24 6 -38 5 -17 4 -22 -4 -15 -16 15
-26 65 -13 65 6 0 11 -6 11 -12z"/>
<path d="M1341 3554 c0 -11 3 -14 6 -6 3 7 2 16 -1 19 -3 4 -6 -2 -5 -13z"/>
<path d="M4472 3551 c-32 -20 68 -28 153 -13 29 6 35 9 22 15 -9 3 -29 2 -43
-3 -32 -13 -37 -12 -29 0 3 6 1 10 -4 10 -6 0 -11 -4 -11 -10 0 -5 -19 -9 -42
-9 l-43 2 40 7 40 7 -35 1 c-19 1 -41 -2 -48 -7z"/>
<path d="M4794 3547 c6 -5 -13 -7 -42 -4 -29 2 -55 0 -58 -4 -3 -5 25 -9 63
-9 106 0 247 -24 428 -72 149 -40 156 -41 110 -23 -22 9 -48 21 -57 26 -10 5
-32 9 -50 9 -26 1 -29 3 -17 10 11 6 28 6 49 -1 26 -10 35 -9 48 5 14 13 14
16 2 16 -11 0 -12 2 -3 8 7 4 -7 8 -30 8 -23 0 -53 4 -66 9 -17 6 -22 5 -17
-3 4 -7 3 -12 -3 -12 -5 0 -12 4 -16 10 -3 5 -13 6 -23 3 -14 -6 -13 -8 8 -14
23 -6 23 -7 -7 -8 -18 -1 -33 4 -33 9 0 6 -7 10 -15 10 -8 0 -15 -4 -15 -10 0
-5 -5 -10 -11 -10 -5 0 -7 5 -3 12 4 6 3 8 -3 5 -13 -8 -173 14 -173 24 0 4
10 9 23 11 12 2 -6 4 -39 3 -35 0 -57 -4 -50 -8z m461 -59 c6 -6 -1 -7 -20 -2
-35 9 -50 9 -90 0 l-30 -6 30 14 c31 16 91 12 110 -6z"/>
<path d="M4938 3543 c7 -3 16 -2 19 1 4 3 -2 6 -13 5 -11 0 -14 -3 -6 -6z"/>
<path d="M4419 3536 c-3 -3 -26 -6 -51 -7 -27 -2 -44 -7 -41 -12 3 -6 -7 -8
-25 -5 -17 2 -29 1 -26 -4 6 -10 -20 -11 -30 -1 -10 10 -76 12 -70 1 3 -4 14
-8 25 -8 10 0 19 -4 19 -10 0 -13 -10 -13 -41 4 -33 17 -111 32 -89 17 9 -6
10 -11 3 -11 -19 0 -43 12 -38 19 2 4 -11 8 -30 9 -25 1 -35 -3 -35 -14 0 -8
-4 -13 -9 -9 -5 3 -12 1 -16 -5 -4 -6 -10 -8 -15 -5 -5 3 -11 1 -15 -5 -4 -6
-11 -8 -16 -5 -5 4 -9 1 -9 -5 0 -6 -4 -8 -10 -5 -6 4 -7 -1 -3 -12 10 -30 24
-43 47 -43 17 0 18 -2 6 -9 -8 -6 -18 -7 -23 -4 -5 3 -4 -5 3 -17 8 -14 8 -20
1 -16 -6 4 -18 -2 -28 -14 -21 -24 -46 -26 -63 -4 -11 13 -10 16 8 21 21 5 58
50 48 60 -10 10 -26 -9 -26 -30 0 -12 -4 -17 -8 -12 -11 15 -32 17 -32 3 0 -7
-3 -23 -6 -36 -4 -13 -3 -22 2 -20 5 2 11 -1 14 -7 3 -5 -5 -11 -17 -13 -23
-3 -33 -22 -13 -22 17 0 211 106 205 112 -3 3 1 11 10 18 21 18 19 30 -6 30
-14 0 -19 -5 -16 -14 6 -14 -12 -26 -36 -26 -7 0 -6 5 3 10 11 8 7 9 -15 4
-29 -6 -29 -6 -10 9 11 9 25 17 32 17 6 0 14 9 18 19 8 27 56 34 62 10 5 -18
7 -18 29 -4 13 8 36 15 51 14 26 -1 26 -2 -9 -13 -20 -6 -40 -15 -45 -20 -4
-5 2 -5 15 -2 39 13 23 -4 -24 -25 -26 -11 -44 -22 -41 -26 4 -3 12 -1 19 5 7
5 32 16 56 23 27 8 41 17 38 25 -6 16 17 25 35 13 11 -7 10 -9 -5 -9 -11 0
-17 -3 -14 -6 4 -3 36 4 72 15 36 11 101 26 145 33 44 7 77 16 75 20 -6 9 -28
11 -35 4z m-419 -120 c0 -2 -11 -11 -25 -20 -14 -9 -25 -12 -25 -6 0 6 10 15
23 20 27 11 27 11 27 6z"/>
<path d="M3835 3521 c-12 -12 -3 -26 18 -27 16 -1 23 4 23 16 0 17 -29 24 -41
11z"/>
<path d="M1066 3465 c3 -27 10 -75 17 -105 l12 -55 6 45 c3 25 10 54 14 64 6
13 5 17 -3 12 -7 -4 -9 5 -7 31 l5 38 -9 -33 c-5 -18 -6 -42 -4 -53 3 -11 0
-19 -7 -19 -9 0 -11 11 -7 34 3 18 2 38 -3 42 -5 5 -10 18 -13 29 -2 11 -3 -2
-1 -30z"/>
<path d="M1426 3489 c-4 -20 -2 -35 5 -40 8 -5 8 -8 0 -12 -7 -3 -7 -5 1 -3
16 3 23 65 10 78 -6 6 -12 -3 -16 -23z"/>
<path d="M5400 3455 c-7 -8 -10 -18 -7 -21 11 -11 59 6 54 19 -6 18 -32 20
-47 2z"/>
<path d="M1398 3398 c-23 -28 -22 -35 0 -40 14 -4 18 1 19 28 0 19 0 34 -1 34
0 0 -9 -10 -18 -22z"/>
<path d="M3740 3354 c0 -8 -5 -12 -10 -9 -6 3 -14 -5 -20 -19 -5 -14 -17 -26
-25 -26 -13 0 -14 -4 -4 -21 8 -15 8 -24 0 -32 -6 -6 -11 -15 -11 -19 0 -4 9
1 20 12 11 11 20 25 20 30 0 13 11 13 30 0 13 -8 12 -10 -2 -10 -10 0 -18 -4
-18 -10 0 -14 11 -12 33 4 14 11 15 15 5 19 -9 4 -3 15 20 36 39 37 40 45 7
37 -18 -5 -25 -2 -25 9 0 8 -4 15 -10 15 -5 0 -10 -7 -10 -16z"/>
<path d="M1330 3323 c0 -5 7 -17 15 -27 15 -20 20 -10 9 18 -6 16 -24 22 -24
9z"/>
<path d="M1101 3293 c-2 -22 49 -172 61 -179 6 -4 8 -3 4 4 -3 6 -2 13 3 16 5
4 11 1 14 -6 2 -7 2 1 0 17 -3 23 -2 27 6 15 8 -11 11 -5 11 28 0 27 -4 41
-10 37 -6 -4 -8 -16 -5 -28 2 -12 2 -16 -1 -9 -8 17 -25 15 -18 -2 3 -8 1 -23
-6 -33 -9 -16 -10 -15 -4 6 4 17 3 21 -6 16 -7 -4 -10 -2 -9 6 2 8 -3 31 -10
51 -7 21 -9 43 -5 49 4 7 3 9 -4 5 -5 -3 -13 0 -15 6 -4 10 -6 10 -6 1z"/>
<path d="M1143 3268 c2 -7 10 -13 17 -13 7 0 15 6 18 13 2 7 -5 12 -18 12 -13
0 -20 -5 -17 -12z"/>
<path d="M870 3238 c0 -16 3 -28 8 -28 4 0 8 -35 10 -78 1 -42 6 -90 11 -107
8 -24 9 -18 6 30 -1 33 -1 47 2 30 2 -16 9 -34 14 -40 12 -12 12 10 0 51 -5
18 -5 37 0 45 10 15 12 9 10 -36 0 -28 0 -28 12 8 6 22 15 35 19 31 4 -4 3
-13 -3 -20 -7 -9 -7 -19 0 -32 6 -11 7 -22 4 -26 -3 -3 1 -14 10 -24 10 -11
14 -26 10 -40 -4 -17 4 -32 35 -62 35 -35 45 -40 76 -36 37 5 58 -7 31 -18
-21 -8 -19 -20 7 -31 13 -6 24 -18 26 -28 4 -18 19 -40 50 -72 6 -8 12 -20 12
-27 0 -8 8 -14 18 -14 24 0 18 37 -9 62 -42 38 -12 42 39 4 20 -15 28 -26 21
-31 -6 -4 -8 -12 -4 -19 6 -9 10 -8 17 4 14 24 -48 102 -68 85 -11 -9 -14 -9
-14 0 0 7 -4 9 -10 6 -5 -3 -10 -2 -10 4 0 5 5 13 10 16 6 3 10 1 10 -5 0 -6
5 -8 11 -5 6 4 -8 26 -33 53 -24 26 -59 66 -78 90 -21 26 -39 41 -48 37 -9 -3
-12 0 -9 9 4 9 -15 39 -46 74 -29 32 -73 83 -99 113 -45 52 -47 53 -48 27z
m50 -45 c15 -18 12 -26 -6 -19 -14 5 -15 4 -5 -7 9 -11 8 -17 -3 -26 -12 -10
-14 -5 -12 29 1 23 -1 43 -6 46 -4 3 -8 11 -8 17 0 7 7 3 15 -8 8 -11 19 -25
25 -32z m30 -33 c0 -5 -4 -10 -10 -10 -5 0 -10 5 -10 10 0 6 5 10 10 10 6 0
10 -4 10 -10z m37 -68 c-12 -16 -28 3 -20 24 4 10 8 10 18 1 9 -9 10 -16 2
-25z m34 -17 c5 4 6 -2 2 -12 -3 -10 -3 -15 2 -11 4 4 14 3 21 -3 10 -8 11
-16 3 -31 -6 -11 -8 -22 -5 -26 3 -3 6 1 6 8 0 11 2 12 13 1 10 -10 8 -15 -6
-26 -16 -11 -14 -13 17 -12 19 1 33 5 30 9 -3 4 -11 5 -19 1 -11 -4 -13 -1 -9
11 6 16 8 16 25 0 10 -9 15 -22 12 -30 -3 -8 1 -14 9 -14 21 0 51 -36 42 -51
-4 -8 -3 -10 5 -5 6 4 18 2 27 -4 19 -17 1 -40 -26 -33 -20 5 -22 10 -24 48
-1 13 -7 19 -18 19 -10 -1 -18 4 -18 12 0 8 -10 14 -25 14 -37 0 -68 35 -63
72 4 21 0 32 -15 40 -14 7 -17 7 -13 -1 4 -6 3 -11 -2 -11 -19 0 -21 14 -5 32
10 11 19 15 21 9 2 -6 8 -9 13 -6z"/>
<path d="M3690 3220 c0 -5 -13 -10 -30 -10 -34 0 -37 -5 -13 -28 16 -16 16
-16 10 2 -5 13 -3 17 7 13 8 -3 22 3 32 14 10 11 12 19 6 19 -7 0 -12 -4 -12
-10z"/>
<path d="M1240 3187 c0 -13 -4 -27 -9 -32 -5 -6 -11 -21 -13 -35 -3 -24 0 -26
35 -21 17 2 17 99 0 106 -8 3 -13 -4 -13 -18z"/>
<path d="M3555 3201 c3 -5 1 -12 -5 -16 -6 -4 -8 -11 -5 -16 6 -8 -8 -13 -27
-10 -5 0 -8 -8 -8 -19 0 -11 4 -20 8 -20 19 0 5 -47 -24 -77 -33 -34 -57 -46
-33 -16 12 15 12 16 -3 10 -9 -3 -19 -1 -22 6 -3 8 -11 4 -23 -11 -10 -13 -28
-24 -39 -24 -22 -2 -28 -38 -7 -38 7 0 13 -5 13 -11 0 -5 -4 -7 -10 -4 -6 3
-7 -1 -4 -10 6 -14 8 -14 24 0 23 21 36 19 19 -2 -11 -15 -10 -14 9 1 22 19
30 32 13 22 -5 -3 -12 1 -15 10 -3 8 -2 12 4 9 6 -3 10 3 10 15 0 12 4 18 11
15 6 -4 8 -14 4 -22 -6 -18 55 35 104 90 18 20 26 35 17 31 -9 -3 -16 -1 -16
5 0 6 5 11 11 11 5 0 8 4 5 8 -3 5 8 6 25 4 l30 -4 -23 35 c-13 20 -29 36 -36
37 -7 0 -11 -4 -7 -9z m-5 -101 c0 -5 -4 -10 -10 -10 -5 0 -10 5 -10 10 0 6 5
10 10 10 6 0 10 -4 10 -10z"/>
<path d="M3610 3182 c0 -12 19 -26 26 -19 2 2 -2 10 -11 17 -9 8 -15 8 -15 2z"/>
<path d="M1164 3087 c3 -10 6 -21 6 -23 0 -3 4 -3 9 0 5 3 12 -1 15 -10 3 -9
2 -12 -4 -9 -6 4 -1 -16 9 -44 28 -70 136 -274 147 -278 14 -5 15 35 2 43 -8
5 -9 1 -5 -10 14 -35 -10 -5 -28 36 -11 24 -24 46 -30 50 -6 5 -3 8 8 8 9 0
17 5 17 10 0 6 -4 10 -10 10 -5 0 -10 7 -10 15 0 13 -11 19 -31 17 -4 -1 -5 9
-2 21 4 17 2 19 -5 8 -7 -10 -10 0 -9 36 1 28 6 49 10 46 5 -3 7 -18 5 -34 -3
-20 0 -29 9 -29 8 0 11 5 8 10 -3 6 -2 10 2 10 5 0 9 9 9 19 0 11 -3 18 -7 15
-4 -2 -10 5 -14 16 -8 24 -14 25 -43 4 -22 -15 -23 -15 -16 10 4 16 0 33 -10
48 -11 15 -16 17 -16 8 0 -13 -2 -13 -11 0 -9 12 -10 12 -5 -3z m66 -86 c0 -5
3 -16 6 -25 3 -9 2 -16 -4 -16 -5 0 -12 11 -14 25 -3 14 -1 25 3 25 5 0 9 -4
9 -9z"/>
<path d="M1270 3085 c-11 -13 -5 -63 7 -52 5 6 14 67 9 67 -2 0 -9 -7 -16 -15z"/>
<path d="M938 3050 c-7 -24 -3 -38 8 -28 3 4 4 17 2 30 l-3 23 -7 -25z"/>
<path d="M915 2990 c-8 -25 4 -90 17 -90 5 0 6 9 2 23 -5 12 -7 37 -6 55 2 36
-4 42 -13 12z"/>
<path d="M942 2970 c0 -19 2 -27 5 -17 2 9 2 25 0 35 -3 9 -5 1 -5 -18z"/>
<path d="M950 2901 c0 -20 36 -36 46 -20 6 11 -19 39 -35 39 -6 0 -11 -8 -11
-19z"/>
<path d="M3356 2912 c-4 -7 -2 -12 3 -12 8 0 7 -7 -1 -19 -7 -11 -16 -17 -20
-15 -5 3 -6 9 -4 13 3 4 -4 8 -15 8 -11 1 -17 -3 -13 -8 3 -6 -4 -7 -20 -3
-16 4 -26 2 -26 -5 0 -6 -5 -11 -11 -11 -6 0 -9 7 -6 14 4 10 1 13 -9 9 -15
-5 -20 -23 -6 -23 8 0 42 -52 42 -64 0 -3 -7 -6 -15 -6 -8 0 -15 5 -15 10 0 6
-5 10 -11 10 -5 0 -9 -8 -7 -17 1 -10 -5 -32 -13 -49 -9 -18 -13 -38 -8 -50 5
-15 10 -9 20 29 8 28 18 46 25 43 6 -2 17 1 23 7 8 8 11 8 11 -1 0 -7 -4 -12
-9 -12 -10 0 -65 -100 -58 -106 5 -5 47 63 47 76 0 4 3 10 8 12 10 5 52 66 52
77 0 5 3 11 8 13 4 2 23 23 42 48 19 25 27 39 18 32 -13 -10 -17 -10 -20 0 -3
9 -6 9 -12 0z m-66 -52 c0 -5 7 -10 16 -10 9 0 14 -6 11 -12 -2 -7 -13 -11
-23 -10 -21 4 -35 22 -28 34 7 11 24 10 24 -2z m10 -55 c0 -12 -19 -12 -23 0
-4 9 -1 12 9 8 7 -3 14 -7 14 -8z"/>
<path d="M937 2847 c3 -21 11 -57 19 -80 11 -37 14 -39 20 -19 7 25 24 30 24
7 0 -8 7 -15 15 -15 21 0 19 12 -7 34 -14 13 -23 15 -26 8 -2 -7 -8 -12 -14
-12 -6 0 -8 7 -4 15 3 8 0 15 -6 15 -6 0 -8 11 -4 30 3 18 2 29 -3 25 -5 -3
-12 3 -15 12 -2 10 -2 1 1 -20z"/>
<path d="M1330 2861 c5 -11 9 -30 9 -43 -1 -20 -2 -21 -6 -3 -6 26 -23 44 -23
25 1 -24 24 -56 40 -55 8 0 15 5 15 10 -1 22 -27 85 -36 85 -6 0 -6 -8 1 -19z"/>
<path d="M1405 2870 c-3 -5 -3 -15 1 -22 5 -8 10 -6 16 8 6 14 7 12 3 -8 -3
-16 -1 -28 4 -28 10 0 22 40 15 52 -7 11 -32 10 -39 -2z"/>
<path d="M3196 2843 c-11 -11 -6 -23 9 -23 8 0 15 4 15 9 0 13 -16 22 -24 14z"/>
<path d="M1116 2771 c1 -14 3 -28 3 -30 1 -2 7 2 15 8 16 13 11 48 -7 48 -7 0
-12 -12 -11 -26z"/>
<path d="M1425 2753 c4 -21 3 -23 -3 -9 -6 14 -11 16 -16 8 -9 -15 1 -32 19
-32 19 0 25 13 18 38 -8 32 -24 27 -18 -5z"/>
<path d="M1140 2732 c0 -11 7 -18 20 -18 13 0 19 5 15 14 -3 7 -5 16 -5 18 0
2 -7 4 -15 4 -8 0 -15 -8 -15 -18z"/>
<path d="M974 2717 c-12 -31 129 -400 213 -557 117 -218 332 -505 479 -639
414 -379 1071 -621 1686 -621 l120 0 -45 37 c-126 105 -234 277 -343 545 -57
140 -61 156 -74 298 -6 63 -13 131 -16 150 -4 23 -2 30 4 22 8 -12 11 8 27
198 1 14 4 32 7 40 9 25 60 184 64 200 3 8 -3 2 -11 -15 l-16 -30 6 34 c3 18
5 49 5 68 0 21 4 32 11 28 6 -4 7 -19 4 -36 -8 -33 0 -38 15 -10 7 14 7 27 -1
45 -10 20 -9 28 5 41 20 20 20 24 0 46 -15 16 -15 23 -3 51 7 18 21 42 32 53
10 11 13 21 7 23 -5 2 -10 11 -10 19 0 10 6 14 20 10 11 -3 18 -1 14 4 -10 17
-35 9 -44 -16 -5 -14 -14 -25 -19 -25 -9 0 -42 -52 -41 -65 0 -3 0 -6 -1 -7
-10 -34 -7 -46 10 -41 24 6 22 -18 -8 -97 -20 -51 -22 -53 -18 -18 2 23 -1 34
-8 31 -5 -3 -4 0 3 8 14 16 16 55 2 64 -11 7 -11 8 -16 -124 -2 -52 1 -102 6
-110 8 -14 9 -14 10 2 0 9 5 17 11 17 7 0 8 -7 4 -17 -23 -54 -54 -156 -51
-162 3 -4 -2 -27 -10 -50 -8 -24 -12 -52 -9 -62 4 -11 3 -34 -1 -52 -6 -28 -8
-30 -15 -12 -11 29 -10 55 2 30 7 -14 7 -8 3 20 -11 62 -6 125 12 163 16 35
10 51 -22 52 -12 0 -26 -78 -26 -140 0 -54 11 -316 16 -404 4 -50 1 -85 -6
-93 -8 -10 -7 -13 4 -13 19 0 36 136 19 153 -6 6 -10 34 -9 62 l1 50 7 -45 c7
-44 7 -44 10 -10 2 19 6 -3 10 -50 4 -47 10 -102 14 -122 6 -25 5 -38 -2 -38
-6 0 -13 12 -15 28 l-4 27 -2 -28 c-1 -33 -19 -42 -66 -33 -29 6 -35 11 -36
34 l-1 27 -7 -25 c-5 -17 -16 -27 -36 -31 -25 -6 -22 -7 20 -9 l50 -3 -65 -7
c-36 -4 -99 -7 -140 -7 l-75 1 85 6 85 6 -97 2 c-53 1 -99 -2 -102 -6 -6 -11
-108 -3 -120 8 -8 8 51 5 98 -5 14 -3 16 -1 8 7 -7 7 -53 12 -114 13 -57 1
-110 5 -118 8 -8 3 -35 12 -60 19 -38 12 -41 15 -22 20 13 4 28 0 37 -9 9 -8
23 -12 35 -8 13 4 22 1 26 -9 9 -24 24 -19 24 8 0 22 -3 24 -34 19 -20 -3 -42
0 -57 9 -13 8 -49 15 -79 15 -30 0 -45 -2 -33 -4 12 -2 27 -11 33 -19 10 -11
3 -10 -34 3 -30 12 -41 20 -33 26 8 5 5 7 -8 5 -20 -3 -142 38 -159 54 -19 16
12 8 66 -17 29 -14 64 -25 77 -25 34 0 19 11 -42 32 -29 10 -41 16 -27 13 14
-2 32 0 40 6 10 6 -1 8 -37 5 -29 -3 -55 -1 -58 5 -4 5 -10 7 -15 4 -4 -3 -10
4 -13 15 -6 22 -27 28 -27 7 0 -7 6 -19 13 -26 10 -11 8 -12 -8 -3 -11 6 -29
17 -40 26 -18 14 -18 15 -2 16 9 0 17 4 17 9 0 13 -55 24 -79 16 -11 -3 -22
-1 -26 4 -4 7 1 8 12 5 14 -5 15 -4 4 4 -8 6 -20 8 -28 5 -7 -3 -13 0 -13 6 0
6 5 11 12 11 9 0 9 3 0 12 -10 10 -15 10 -21 -1 -6 -9 -11 -10 -15 -2 -10 15
21 44 35 35 7 -4 31 -9 55 -11 42 -3 65 10 47 28 -13 13 -132 -1 -149 -18 -9
-9 -22 -12 -32 -8 -15 7 -15 8 3 16 18 8 17 9 -4 5 -16 -3 -30 2 -42 15 -10
11 -20 19 -23 17 -6 -3 -49 26 -76 52 -8 8 -31 28 -49 43 -33 27 -54 87 -31
87 6 0 10 -10 10 -23 0 -12 9 -30 20 -40 23 -19 40 -22 40 -7 0 6 11 4 24 -5
20 -14 25 -14 35 -1 7 8 10 20 6 26 -7 12 -45 14 -45 1 0 -6 -41 -9 -60 -3 -3
1 -6 19 -8 39 -3 46 -16 60 -65 66 -44 6 -56 -7 -31 -34 9 -10 14 -19 10 -19
-9 0 -66 62 -66 72 0 4 11 10 25 14 14 3 25 10 25 15 0 13 -34 11 -47 -2 -8
-8 -16 -3 -28 20 -12 25 -21 31 -36 26 -21 -7 -25 5 -7 23 21 21 38 13 45 -18
9 -46 26 -49 17 -3 -8 47 -20 61 -59 64 -16 2 -36 8 -43 13 -9 7 -16 5 -22 -5
-8 -12 -13 -10 -32 9 -20 20 -21 24 -8 33 13 9 12 10 -2 5 -10 -3 -20 0 -24 6
-5 7 3 9 24 6 17 -2 29 -1 26 4 -3 4 0 8 5 8 14 0 14 -17 1 -25 -5 -3 -10 -14
-9 -23 0 -11 3 -12 6 -4 2 6 11 12 18 12 18 0 30 39 16 53 -8 8 -17 7 -35 -2
-26 -14 -46 -8 -46 13 0 17 -28 41 -37 32 -3 -3 1 -14 10 -24 24 -26 21 -39
-3 -17 -11 10 -20 24 -20 32 0 7 -6 13 -13 13 -7 0 -21 14 -31 31 -17 29 -17
32 -3 41 14 7 14 12 5 28 -7 10 -16 16 -21 13 -5 -3 -4 -9 3 -13 7 -4 9 -13 6
-19 -11 -17 -20 -13 -33 14 -6 14 -7 25 -2 25 5 0 9 6 9 14 0 8 14 19 30 25
28 9 44 34 18 29 -7 -2 -14 10 -17 26 -10 51 -32 44 -29 -9 3 -40 -1 -50 -19
-62 l-22 -15 3 60 c3 50 1 59 -11 55 -9 -3 -12 -12 -7 -22 3 -9 8 -25 11 -36
4 -19 4 -19 -10 -2 -11 14 -16 15 -21 5 -3 -7 -3 4 0 25 4 24 2 37 -5 37 -6 0
-14 -6 -17 -13z m13 -19 c-3 -8 -6 -5 -6 6 -1 11 2 17 5 13 3 -3 4 -12 1 -19z
m293 -283 c0 -8 -2 -15 -4 -15 -2 0 -6 7 -10 15 -3 8 -1 15 4 15 6 0 10 -7 10
-15z m1783 -35 c-3 -11 -10 -23 -16 -27 -7 -4 -8 0 -4 11 4 10 7 22 7 27 0 5
4 9 9 9 5 0 7 -9 4 -20z m-1740 -49 c16 -2 6 -18 -19 -30 -23 -10 -26 -9 -21
4 4 8 3 14 -1 14 -15 -3 -23 1 -18 9 3 5 15 8 28 6 13 -1 26 -3 31 -3z m30
-85 c4 -10 1 -13 -9 -9 -7 3 -14 9 -14 14 0 14 17 10 23 -5z m132 -75 c5 -1 4
-6 -3 -13 -9 -9 -16 -9 -29 4 -15 15 -15 16 3 13 10 -2 23 -4 29 -4z m25 -81
c0 -5 -4 -10 -10 -10 -5 0 -10 5 -10 10 0 6 5 10 10 10 6 0 10 -4 10 -10z
m131 -33 c-10 -9 -11 -8 -5 6 3 10 9 15 12 12 3 -3 0 -11 -7 -18z m279 -147
c0 -5 -11 -10 -25 -10 -14 0 -25 5 -25 10 0 6 11 10 25 10 14 0 25 -4 25 -10z
m1057 -22 c-3 -8 -6 -5 -6 6 -1 11 2 17 5 13 3 -3 4 -12 1 -19z m0 -195 c-3
-10 -5 -4 -5 12 0 17 2 24 5 18 2 -7 2 -21 0 -30z"/>
<path d="M3035 2720 c-8 -13 3 -30 18 -30 7 0 6 4 -3 10 -13 9 -13 11 0 20 9
6 10 10 3 10 -6 0 -15 -4 -18 -10z"/>
<path d="M3137 2631 c17 -12 32 -50 23 -56 -5 -3 -16 7 -25 22 -15 27 -15 27
-9 3 3 -14 11 -31 17 -38 7 -9 6 -20 -3 -37 -7 -14 -11 -28 -8 -31 5 -4 33 48
69 126 5 13 -1 16 -32 16 -22 0 -36 -2 -32 -5z m48 -11 c3 -5 1 -10 -4 -10 -6
0 -11 5 -11 10 0 6 2 10 4 10 3 0 8 -4 11 -10z"/>
<path d="M1100 2624 c0 -3 7 -12 15 -20 16 -17 18 -14 9 10 -6 15 -24 23 -24
10z"/>
<path d="M5360 2593 c-45 -8 -122 -13 -193 -11 -64 2 -117 2 -117 1 0 -3 281
-567 284 -570 2 -2 24 39 49 91 86 173 165 457 137 491 -15 18 -57 18 -160 -2z"/>
<path d="M1165 2560 c-11 -17 5 -48 26 -53 28 -8 79 40 58 54 -19 12 -76 11
-84 -1z m28 -32 c15 -10 37 2 38 21 0 12 2 13 6 2 3 -8 -2 -20 -12 -27 -22
-16 -55 -1 -54 24 0 14 2 14 6 2 3 -8 11 -18 16 -22z"/>
<path d="M3829 2550 c-147 -25 -213 -208 -117 -325 71 -85 189 -98 281 -31 34
25 77 109 77 150 0 132 -112 228 -241 206z"/>
<path d="M1111 2524 c0 -11 3 -14 6 -6 3 7 2 16 -1 19 -3 4 -6 -2 -5 -13z"/>
<path d="M1420 2390 c0 -5 5 -10 10 -10 6 0 10 5 10 10 0 6 -4 10 -10 10 -5 0
-10 -4 -10 -10z"/>
<path d="M2907 2243 c-4 -3 -7 -23 -7 -43 0 -21 -7 -43 -15 -50 -8 -7 -15 -23
-15 -35 0 -12 7 -28 15 -35 10 -9 15 -30 14 -69 0 -42 -3 -51 -10 -36 -7 16
-8 12 -6 -17 2 -21 -1 -38 -6 -38 -4 0 -7 -36 -6 -80 2 -57 7 -80 16 -80 10 0
13 21 13 78 0 43 4 82 9 87 12 13 19 144 9 147 -11 4 -12 34 -3 78 7 33 8 90
1 97 -1 2 -6 0 -9 -4z"/>
<path d="M1580 2230 c0 -5 5 -10 10 -10 6 0 10 5 10 10 0 6 -4 10 -10 10 -5 0
-10 -4 -10 -10z"/>
<path d="M1410 2189 c0 -5 5 -7 10 -4 6 3 10 8 10 11 0 2 -4 4 -10 4 -5 0 -10
-5 -10 -11z"/>
<path d="M2991 2144 c0 -11 3 -14 6 -6 3 7 2 16 -1 19 -3 4 -6 -2 -5 -13z"/>
<path d="M1720 2038 c1 -43 23 -88 37 -74 4 4 7 30 8 59 0 46 -2 52 -22 55
-21 3 -23 -1 -23 -40z m31 -51 c-8 -8 -11 2 -10 39 l1 49 10 -38 c7 -28 7 -42
-1 -50z"/>
<path d="M1590 2033 c0 -5 5 -15 10 -23 8 -12 10 -11 10 8 0 12 -4 22 -10 22
-5 0 -10 -3 -10 -7z"/>
<path d="M1644 1985 c8 -8 20 -15 27 -15 9 0 8 4 -1 15 -7 8 -19 15 -27 15
-12 0 -12 -2 1 -15z"/>
<path d="M2920 1790 c0 -71 4 -130 9 -130 14 0 16 27 13 148 -2 61 -7 112 -13
112 -5 0 -9 -56 -9 -130z"/>
<path d="M1980 1820 c0 -5 5 -10 10 -10 6 0 10 5 10 10 0 6 -4 10 -10 10 -5 0
-10 -4 -10 -10z"/>
<path d="M2313 1762 c-18 -2 -33 -7 -33 -11 0 -9 51 -23 90 -25 18 -1 25 4 25
18 0 21 -16 24 -82 18z m77 -14 c0 -4 -17 -8 -37 -8 -23 0 -33 4 -26 8 17 10
63 10 63 0z"/>
<path d="M2180 1750 c0 -5 14 -10 30 -10 17 0 30 5 30 10 0 6 -13 10 -30 10
-16 0 -30 -4 -30 -10z"/>
<path d="M2130 1746 c0 -2 7 -6 15 -10 8 -3 15 -1 15 4 0 6 -7 10 -15 10 -8 0
-15 -2 -15 -4z"/>
<path d="M2333 1673 c9 -2 23 -2 30 0 6 3 -1 5 -18 5 -16 0 -22 -2 -12 -5z"/>
<path d="M2920 1640 c0 -5 5 -10 10 -10 6 0 10 5 10 10 0 6 -4 10 -10 10 -5 0
-10 -4 -10 -10z"/>
</g>
</svg>
