<?xml version="1.0" standalone="no"?>
<!DOCTYPE svg PUBLIC "-//W3C//DTD SVG 20010904//EN"
 "http://www.w3.org/TR/2001/REC-SVG-20010904/DTD/svg10.dtd">
<svg version="1.0" xmlns="http://www.w3.org/2000/svg"
 width="1200.000000pt" height="600.000000pt" viewBox="0 0 1200.000000 600.000000"
 preserveAspectRatio="xMidYMid meet">

<g transform="translate(0.000000,600.000000) scale(0.100000,-0.100000)"
fill="white" stroke="none">
<path d="M2244 3989 c-167 -25 -304 -97 -429 -223 -103 -103 -158 -197 -197
-332 -29 -103 -31 -275 -4 -379 22 -82 37 -108 72 -123 46 -22 83 -15 120 22
39 39 41 58 19 143 -22 82 -19 217 5 294 71 230 285 389 523 389 242 -1 452
-164 522 -405 26 -88 17 -248 -19 -335 -48 -119 -153 -232 -268 -291 -57 -29
-140 -47 -275 -58 -67 -6 -128 -14 -137 -17 -11 -4 -16 -1 -16 11 0 9 25 132
55 274 30 142 55 272 55 288 0 40 -32 79 -75 93 -30 10 -41 9 -73 -7 -20 -10
-42 -29 -49 -43 -6 -14 -66 -283 -134 -598 -119 -560 -122 -574 -106 -607 33
-69 118 -82 169 -27 20 20 31 53 48 132 27 124 45 164 98 212 53 48 107 65
239 78 186 17 318 69 447 176 171 141 267 349 269 579 1 135 -18 215 -80 345
-40 82 -59 108 -142 191 -83 83 -109 102 -191 142 -52 25 -124 52 -160 61 -85
20 -210 27 -286 15z"/>
<path d="M4515 3671 c-50 -22 -53 -32 -217 -801 -159 -744 -161 -752 -144
-786 36 -77 146 -78 187 -2 14 26 319 1453 319 1493 0 67 -83 123 -145 96z"/>
<path d="M7971 3668 c-48 -26 -60 -59 -112 -308 -28 -135 -52 -246 -53 -247
-1 -1 -33 10 -71 24 -53 19 -90 26 -155 26 -168 2 -284 -46 -405 -167 -89 -89
-148 -192 -181 -316 -19 -69 -26 -293 -11 -361 7 -33 5 -36 -30 -56 -83 -45
-169 -36 -203 20 -25 41 -26 142 -4 280 16 92 16 101 0 133 -22 47 -75 70
-126 55 -49 -14 -63 -33 -90 -116 -84 -254 -207 -397 -345 -399 -105 -2 -159
81 -158 244 1 203 79 361 214 435 75 40 187 47 288 16 82 -25 111 -21 146 21
32 37 34 94 4 132 -34 43 -141 71 -279 71 -101 0 -124 -3 -190 -28 -181 -66
-310 -217 -385 -447 -42 -129 -117 -277 -175 -342 -146 -164 -341 -136 -352
51 l-3 54 61 36 c92 55 132 89 179 155 57 80 86 155 92 241 8 99 -14 171 -66
218 -54 48 -100 62 -211 61 -111 -1 -179 -23 -273 -86 -44 -30 -57 -35 -53
-21 16 55 106 500 106 525 0 21 -11 41 -34 64 -44 44 -92 46 -136 7 -30 -28
-33 -39 -191 -773 -101 -472 -157 -755 -154 -772 19 -85 154 -105 194 -29 6
10 33 122 61 250 71 326 101 400 206 504 79 79 158 117 240 117 54 0 65 -3 78
-22 63 -90 -70 -260 -248 -318 l-51 -17 -3 -113 c-3 -133 8 -197 49 -279 70
-140 216 -203 387 -167 99 21 164 58 247 141 l71 70 18 -37 c24 -52 96 -121
153 -149 70 -34 206 -38 287 -10 67 24 152 84 192 136 14 19 29 35 33 35 4 0
12 -15 19 -34 19 -52 100 -122 163 -140 111 -33 269 -13 351 45 25 18 34 20
47 10 9 -6 41 -24 71 -39 49 -24 66 -27 160 -27 99 0 110 2 171 32 43 21 86
54 124 94 33 34 61 57 62 52 2 -6 17 -31 32 -55 56 -88 140 -128 270 -128 93
0 156 17 234 64 l58 35 45 -34 c25 -19 68 -41 96 -50 77 -23 204 -20 284 7
182 59 345 255 405 483 27 102 29 285 5 360 -9 28 -16 53 -16 58 0 4 59 7 130
7 97 0 130 -3 130 -12 0 -7 -15 -89 -34 -183 -66 -328 -67 -454 -5 -582 56
-117 137 -158 299 -151 88 3 104 7 171 40 125 62 234 188 315 363 43 94 45
143 6 186 -22 24 -36 31 -65 31 -58 0 -80 -22 -135 -135 -85 -174 -188 -267
-296 -267 -62 0 -80 11 -100 60 -31 78 -14 265 52 575 l17 80 168 5 169 5 24
28 c29 33 32 91 8 126 -28 40 -73 51 -202 51 l-119 0 23 103 c29 129 30 177 4
210 -30 38 -80 52 -123 33 -49 -20 -62 -45 -87 -166 -12 -58 -26 -122 -31
-142 l-9 -37 -378 -3 c-355 -4 -381 -5 -443 -26 -195 -65 -346 -245 -409 -487
-18 -66 -21 -103 -18 -215 l3 -134 -42 -29 c-44 -31 -118 -46 -168 -33 -45 11
-65 59 -65 156 0 116 15 201 125 710 52 242 95 453 95 469 0 67 -90 120 -149
89z m-281 -749 c33 -17 60 -38 60 -46 0 -28 -42 -205 -64 -272 -78 -226 -204
-361 -339 -361 -100 0 -148 69 -155 220 -7 164 40 303 132 395 109 109 240
132 366 64z m1158 11 c72 -44 97 -197 58 -350 -18 -71 -81 -189 -134 -250 -46
-55 -129 -93 -201 -93 -71 0 -113 21 -149 75 -24 37 -27 52 -30 144 -6 165 34
285 131 391 69 75 129 103 222 103 53 0 78 -5 103 -20z"/>
<path d="M3578 3160 c-297 -53 -508 -341 -508 -691 0 -217 83 -356 249 -419
57 -22 185 -27 260 -9 174 40 351 224 423 439 30 90 32 104 33 245 0 130 -3
158 -21 207 -44 113 -112 184 -207 213 -61 18 -171 26 -229 15z m181 -244 c51
-49 65 -101 58 -219 -13 -235 -141 -425 -306 -457 -155 -29 -245 80 -226 274
9 99 23 151 61 226 45 91 94 143 167 180 56 29 69 31 139 28 69 -3 80 -6 107
-32z"/>
<path d="M10240 2249 c-93 -37 -114 -150 -40 -213 43 -36 81 -41 133 -18 103
46 93 190 -16 231 -34 13 -44 13 -77 0z"/>
</g>
</svg>
